Merritest-Bold.ufo
<glyph name="quotedbl" format="1">
  <advance width="1261"/>
  <unicode hex="0022"/>
  <outline>
    <contour>
      <point x="798" y="960" type="line"/>
      <point x="729" y="1782" type="line"/>
      <point x="1033" y="1782" type="line"/>
      <point x="964" y="960" type="line"/>
    </contour>
    <contour>
      <point x="297" y="960" type="line"/>
      <point x="227" y="1782" type="line"/>
      <point x="532" y="1782" type="line"/>
      <point x="463" y="960" type="line"/>
    </contour>
  </outline>
</glyph>
<glyph name="dollar" format="1">
  <advance width="1324"/>
  <unicode hex="0024"/>
  <outline>
    <contour>
      <point x="147" y="63" type="curve"/>
      <point x="147" y="432" type="line"/>
      <point x="270" y="432" type="line"/>
      <point x="350" y="209" type="line"/>
      <point x="425" y="120"/>
      <point x="544" y="105"/>
      <point x="654" y="105" type="curve" smooth="yes"/>
      <point x="776" y="105"/>
      <point x="921" y="167"/>
      <point x="921" y="346" type="curve" smooth="yes"/>
      <point x="921" y="497"/>
      <point x="742" y="588"/>
      <point x="555" y="690" type="curve" smooth="yes"/>
      <point x="355" y="800"/>
      <point x="148" y="926"/>
      <point x="148" y="1158" type="curve" smooth="yes"/>
      <point x="149" y="1409"/>
      <point x="370" y="1540"/>
      <point x="590" y="1563" type="curve"/>
      <point x="596" y="1754" type="line"/>
      <point x="785" y="1754" type="line"/>
      <point x="780" y="1562" type="line"/>
      <point x="937" y="1550"/>
      <point x="1063" y="1517"/>
      <point x="1103" y="1493" type="curve"/>
      <point x="1103" y="1185" type="line"/>
      <point x="973" y="1185" type="line"/>
      <point x="886" y="1387" type="line"/>
      <point x="859" y="1415"/>
      <point x="763" y="1442"/>
      <point x="674" y="1441" type="curve"/>
      <point x="567" y="1441"/>
      <point x="419" y="1395"/>
      <point x="418" y="1238" type="curve" smooth="yes"/>
      <point x="418" y="1088"/>
      <point x="564" y="994"/>
      <point x="729" y="904" type="curve" smooth="yes"/>
      <point x="948" y="784"/>
      <point x="1203" y="664"/>
      <point x="1202" y="411" type="curve"/>
      <point x="1202" y="154"/>
      <point x="999" y="-5"/>
      <point x="702" y="-24" type="curve"/>
      <point x="694" y="-237" type="line"/>
      <point x="499" y="-237" type="line"/>
      <point x="507" y="-20" type="line"/>
      <point x="356" y="-6"/>
      <point x="211" y="27"/>
    </contour>
  </outline>
</glyph>
<glyph name="parenright" format="1">
  <advance width="925"/>
  <unicode hex="0029"/>
  <outline>
    <contour>
      <point x="154" y="-253" type="line"/>
      <point x="237" y="-197"/>
      <point x="499" y="69"/>
      <point x="516" y="648" type="curve" smooth="yes"/>
      <point x="533" y="1235"/>
      <point x="234" y="1593"/>
      <point x="132" y="1665" type="curve"/>
      <point x="261" y="1757" type="line"/>
      <point x="358" y="1702"/>
      <point x="785" y="1418"/>
      <point x="785" y="701" type="curve" smooth="yes"/>
      <point x="785" y="75"/>
      <point x="370" y="-288"/>
      <point x="273" y="-339" type="curve"/>
    </contour>
  </outline>
</glyph>
<glyph name="plus" format="1">
  <advance width="1298"/>
  <unicode hex="002B"/>
  <outline>
    <contour>
      <point x="541" y="333" type="line"/>
      <point x="541" y="546" type="line"/>
      <point x="550" y="724" type="line"/>
      <point x="390" y="715" type="line"/>
      <point x="175" y="715" type="line"/>
      <point x="175" y="928" type="line"/>
      <point x="390" y="928" type="line"/>
      <point x="550" y="917" type="line"/>
      <point x="541" y="1097" type="line"/>
      <point x="541" y="1316" type="line"/>
      <point x="757" y="1316" type="line"/>
      <point x="757" y="1097" type="line"/>
      <point x="747" y="917" type="line"/>
      <point x="894" y="928" type="line"/>
      <point x="1123" y="928" type="line"/>
      <point x="1123" y="715" type="line"/>
      <point x="894" y="715" type="line"/>
      <point x="747" y="724" type="line"/>
      <point x="757" y="546" type="line"/>
      <point x="757" y="333" type="line"/>
    </contour>
  </outline>
</glyph>
<glyph name="semicolon" format="1">
  <advance width="775"/>
  <unicode hex="003B"/>
  <outline>
    <contour>
      <point x="365" y="739" type="curve" smooth="yes"/>
      <point x="279" y="739"/>
      <point x="195" y="797"/>
      <point x="195" y="898" type="curve" smooth="yes"/>
      <point x="195" y="1007"/>
      <point x="302" y="1090"/>
      <point x="395" y="1090" type="curve" smooth="yes"/>
      <point x="513" y="1090"/>
      <point x="567" y="1016"/>
      <point x="567" y="926" type="curve" smooth="yes"/>
      <point x="567" y="811"/>
      <point x="464" y="739"/>
    </contour>
    <contour>
      <point x="222" y="30" type="curve"/>
      <point x="222" y="95" type="line"/>
      <point x="386" y="304" type="line"/>
      <point x="560" y="249"/>
      <point x="630" y="73"/>
      <point x="629" y="-63" type="curve"/>
      <point x="625" y="-327"/>
      <point x="438" y="-492"/>
      <point x="270" y="-554" type="curve"/>
      <point x="206" y="-488" type="line"/>
      <point x="206" y="-446" type="line"/>
      <point x="288" y="-415"/>
      <point x="381" y="-312"/>
      <point x="381" y="-167" type="curve" smooth="yes"/>
      <point x="381" y="-71"/>
      <point x="307" y="22"/>
    </contour>
  </outline>
</glyph>
<glyph name="less" format="1">
  <advance width="1331"/>
  <unicode hex="003C"/>
  <outline>
    <contour>
      <point x="159" y="695" type="line"/>
      <point x="159" y="829" type="line"/>
      <point x="1128" y="1328" type="line"/>
      <point x="1128" y="1083" type="line"/>
      <point x="444" y="760" type="line"/>
      <point x="1128" y="457" type="line"/>
      <point x="1128" y="205" type="line"/>
    </contour>
  </outline>
</glyph>
<glyph name="question" format="1">
  <advance width="1041"/>
  <unicode hex="003F"/>
  <outline>
    <contour>
      <point x="410" y="520" type="line"/>
      <point x="315" y="605"/>
      <point x="239" y="753"/>
      <point x="236" y="843" type="curve"/>
      <point x="233" y="1034"/>
      <point x="733" y="1078"/>
      <point x="762" y="1174" type="curve"/>
      <point x="760" y="1463"/>
      <point x="485" y="1606"/>
      <point x="304" y="1609" type="curve"/>
      <point x="212" y="1612"/>
      <point x="139" y="1604"/>
      <point x="103" y="1581" type="curve"/>
      <point x="95" y="1801" type="line"/>
      <point x="114" y="1828"/>
      <point x="228" y="1852"/>
      <point x="319" y="1850" type="curve" smooth="yes"/>
      <point x="904" y="1834"/>
      <point x="985" y="1347"/>
      <point x="921" y="1131" type="curve"/>
      <point x="901" y="1034"/>
      <point x="570" y="966"/>
      <point x="506" y="857" type="curve"/>
      <point x="473" y="779"/>
      <point x="560" y="602"/>
      <point x="597" y="520" type="curve"/>
    </contour>
    <contour>
      <point x="366" y="131" type="curve" smooth="yes"/>
      <point x="366" y="240"/>
      <point x="473" y="323"/>
      <point x="565" y="323" type="curve" smooth="yes"/>
      <point x="683" y="323"/>
      <point x="738" y="249"/>
      <point x="738" y="159" type="curve" smooth="yes"/>
      <point x="738" y="44"/>
      <point x="635" y="-28"/>
      <point x="535" y="-28" type="curve" smooth="yes"/>
      <point x="450" y="-28"/>
      <point x="366" y="30"/>
    </contour>
  </outline>
</glyph>
<glyph name="at" format="1">
  <advance width="2217"/>
  <unicode hex="0040"/>
  <outline>
    <contour>
      <point x="182" y="396" type="curve" smooth="yes"/>
      <point x="182" y="1048"/>
      <point x="742" y="1452"/>
      <point x="1260" y="1452" type="curve" smooth="yes"/>
      <point x="1791" y="1452"/>
      <point x="2045" y="1161"/>
      <point x="2045" y="815" type="curve" smooth="yes"/>
      <point x="2045" y="326"/>
      <point x="1737" y="50"/>
      <point x="1455" y="37" type="curve" smooth="yes"/>
      <point x="1343" y="32"/>
      <point x="1306" y="104"/>
      <point x="1301" y="223" type="curve" smooth="yes"/>
      <point x="1299" y="257"/>
      <point x="1306" y="336"/>
      <point x="1318" y="424" type="curve"/>
      <point x="1238" y="234"/>
      <point x="1095" y="30"/>
      <point x="930" y="25" type="curve" smooth="yes"/>
      <point x="789" y="20"/>
      <point x="628" y="170"/>
      <point x="628" y="405" type="curve" smooth="yes"/>
      <point x="628" y="741"/>
      <point x="851" y="1047"/>
      <point x="1099" y="1056" type="curve"/>
      <point x="1197" y="1061"/>
      <point x="1286" y="1042"/>
      <point x="1367" y="1006" type="curve"/>
      <point x="1378" y="1037"/>
      <point x="1394" y="1062"/>
      <point x="1421" y="1056" type="curve"/>
      <point x="1485" y="1039"/>
      <point x="1541" y="1017"/>
      <point x="1607" y="997" type="curve"/>
      <point x="1579" y="849"/>
      <point x="1546" y="641"/>
      <point x="1528" y="451" type="curve" smooth="yes"/>
      <point x="1511" y="272"/>
      <point x="1530" y="189"/>
      <point x="1551" y="189" type="curve" smooth="yes"/>
      <point x="1659" y="191"/>
      <point x="1839" y="458"/>
      <point x="1839" y="732" type="curve" smooth="yes"/>
      <point x="1839" y="1171"/>
      <point x="1518" y="1305"/>
      <point x="1174" y="1305" type="curve" smooth="yes"/>
      <point x="815" y="1305"/>
      <point x="412" y="1001"/>
      <point x="412" y="487" type="curve" smooth="yes"/>
      <point x="412" y="-56"/>
      <point x="753" y="-226"/>
      <point x="1128" y="-226" type="curve" smooth="yes"/>
      <point x="1259" y="-226"/>
      <point x="1448" y="-186"/>
      <point x="1509" y="-153" type="curve"/>
      <point x="1562" y="-262" type="line"/>
      <point x="1469" y="-332"/>
      <point x="1279" y="-378"/>
      <point x="1074" y="-378" type="curve" smooth="yes"/>
      <point x="543" y="-378"/>
      <point x="182" y="-86"/>
    </contour>
    <contour>
      <point x="861" y="504" type="curve" smooth="yes"/>
      <point x="861" y="387"/>
      <point x="883" y="224"/>
      <point x="976" y="224" type="curve" smooth="yes"/>
      <point x="1069" y="224"/>
      <point x="1276" y="578"/>
      <point x="1312" y="831" type="curve"/>
      <point x="1277" y="861"/>
      <point x="1174" y="882"/>
      <point x="1124" y="882" type="curve" smooth="yes"/>
      <point x="959" y="882"/>
      <point x="861" y="741"/>
    </contour>
  </outline>
</glyph>
<glyph name="B" format="1">
  <advance width="1441"/>
  <unicode hex="0042"/>
  <outline>
    <contour>
      <point x="91" y="0" type="line"/>
      <point x="91" y="116" type="line"/>
      <point x="252" y="154" type="line"/>
      <point x="252" y="1397" type="line"/>
      <point x="95" y="1418" type="line"/>
      <point x="95" y="1553" type="line"/>
      <point x="382" y="1553" type="line"/>
      <point x="416" y="1558"/>
      <point x="572" y="1564"/>
      <point x="739" y="1567" type="curve" smooth="yes"/>
      <point x="1087" y="1573"/>
      <point x="1270" y="1430"/>
      <point x="1270" y="1206" type="curve" smooth="yes"/>
      <point x="1270" y="1034"/>
      <point x="1183" y="883"/>
      <point x="995" y="837" type="curve"/>
      <point x="1201" y="835"/>
      <point x="1374" y="675"/>
      <point x="1374" y="461" type="curve" smooth="yes"/>
      <point x="1374" y="169"/>
      <point x="1177" y="-12"/>
      <point x="691" y="-12" type="curve" smooth="yes"/>
      <point x="573" y="-12"/>
      <point x="463" y="-2"/>
      <point x="330" y="0" type="curve"/>
    </contour>
    <contour>
      <point x="537" y="881" type="line"/>
      <point x="578" y="871"/>
      <point x="646" y="873"/>
      <point x="716" y="873" type="curve" smooth="yes"/>
      <point x="941" y="873"/>
      <point x="997" y="1027"/>
      <point x="997" y="1175" type="curve" smooth="yes"/>
      <point x="997" y="1329"/>
      <point x="902" y="1434"/>
      <point x="694" y="1434" type="curve" smooth="yes"/>
      <point x="656" y="1434"/>
      <point x="571" y="1433"/>
      <point x="539" y="1419" type="curve"/>
    </contour>
    <contour>
      <point x="536" y="151" type="line"/>
      <point x="570" y="132"/>
      <point x="674" y="119"/>
      <point x="762" y="119" type="curve" smooth="yes"/>
      <point x="969" y="119"/>
      <point x="1073" y="260"/>
      <point x="1073" y="435" type="curve" smooth="yes"/>
      <point x="1073" y="614"/>
      <point x="988" y="735"/>
      <point x="762" y="735" type="curve" smooth="yes"/>
      <point x="688" y="735"/>
      <point x="604" y="737"/>
      <point x="536" y="726" type="curve"/>
    </contour>
  </outline>
</glyph>
<glyph name="C" format="1">
  <advance width="1447"/>
  <unicode hex="0043"/>
  <outline>
    <contour>
      <point x="76" y="724" type="curve" smooth="yes"/>
      <point x="76" y="1241"/>
      <point x="482" y="1567"/>
      <point x="924" y="1567" type="curve" smooth="yes"/>
      <point x="1123" y="1567"/>
      <point x="1255" y="1519"/>
      <point x="1345" y="1500" type="curve"/>
      <point x="1326" y="1154" type="line"/>
      <point x="1162" y="1154" type="line"/>
      <point x="1098" y="1342" type="line"/>
      <point x="1046" y="1389"/>
      <point x="986" y="1412"/>
      <point x="843" y="1412" type="curve" smooth="yes"/>
      <point x="594" y="1412"/>
      <point x="388" y="1193"/>
      <point x="388" y="803" type="curve" smooth="yes"/>
      <point x="388" y="444"/>
      <point x="553" y="114"/>
      <point x="863" y="114" type="curve" smooth="yes"/>
      <point x="1028" y="114"/>
      <point x="1102" y="155"/>
      <point x="1139" y="212" type="curve"/>
      <point x="1210" y="392" type="line"/>
      <point x="1346" y="392" type="line"/>
      <point x="1346" y="65" type="line"/>
      <point x="1248" y="61"/>
      <point x="1126" y="-28"/>
      <point x="829" y="-28" type="curve" smooth="yes"/>
      <point x="360" y="-28"/>
      <point x="76" y="294"/>
    </contour>
  </outline>
</glyph>
<glyph name="E" format="1">
  <advance width="1380"/>
  <unicode hex="0045"/>
  <outline>
    <contour>
      <point x="101" y="0" type="line"/>
      <point x="101" y="116" type="line"/>
      <point x="258" y="152" type="line"/>
      <point x="258" y="1397" type="line"/>
      <point x="106" y="1418" type="line"/>
      <point x="106" y="1553" type="line"/>
      <point x="1199" y="1553" type="line"/>
      <point x="1229" y="1235" type="line"/>
      <point x="1065" y="1235" type="line"/>
      <point x="992" y="1399" type="line"/>
      <point x="543" y="1416" type="line"/>
      <point x="543" y="870" type="line"/>
      <point x="849" y="878" type="line"/>
      <point x="893" y="1031" type="line"/>
      <point x="1040" y="1031" type="line"/>
      <point x="1040" y="568" type="line"/>
      <point x="893" y="568" type="line"/>
      <point x="849" y="724" type="line"/>
      <point x="543" y="730" type="line"/>
      <point x="543" y="137" type="line"/>
      <point x="1049" y="162" type="line"/>
      <point x="1165" y="363" type="line"/>
      <point x="1325" y="332" type="line"/>
      <point x="1274" y="0" type="line"/>
    </contour>
  </outline>
</glyph>
<glyph name="F" format="1">
  <advance width="1286"/>
  <unicode hex="0046"/>
  <outline>
    <contour>
      <point x="93" y="0" type="line"/>
      <point x="93" y="116" type="line"/>
      <point x="252" y="148" type="line"/>
      <point x="252" y="1398" type="line"/>
      <point x="93" y="1418" type="line"/>
      <point x="93" y="1553" type="line"/>
      <point x="1208" y="1553" type="line"/>
      <point x="1234" y="1232" type="line"/>
      <point x="1091" y="1230" type="line"/>
      <point x="1030" y="1388" type="line"/>
      <point x="538" y="1407" type="line"/>
      <point x="538" y="852" type="line"/>
      <point x="892" y="862" type="line"/>
      <point x="946" y="1012" type="line"/>
      <point x="1074" y="1012" type="line"/>
      <point x="1074" y="540" type="line"/>
      <point x="931" y="540" type="line"/>
      <point x="895" y="699" type="line"/>
      <point x="538" y="705" type="line"/>
      <point x="538" y="156" type="line"/>
      <point x="845" y="131" type="line"/>
      <point x="845" y="0" type="line"/>
    </contour>
  </outline>
</glyph>
<glyph name="G" format="1">
  <advance width="1564"/>
  <unicode hex="0047"/>
  <outline>
    <contour>
      <point x="74" y="738" type="curve" smooth="yes"/>
      <point x="74" y="1254"/>
      <point x="430" y="1567"/>
      <point x="891" y="1567" type="curve" smooth="yes"/>
      <point x="1150" y="1567"/>
      <point x="1322" y="1525"/>
      <point x="1378" y="1508" type="curve"/>
      <point x="1359" y="1189" type="line"/>
      <point x="1211" y="1189" type="line"/>
      <point x="1136" y="1362" type="line"/>
      <point x="1121" y="1383"/>
      <point x="1025" y="1429"/>
      <point x="852" y="1428" type="curve" smooth="yes"/>
      <point x="576" y="1426"/>
      <point x="381" y="1177"/>
      <point x="381" y="810" type="curve" smooth="yes"/>
      <point x="381" y="448"/>
      <point x="513" y="108"/>
      <point x="837" y="108" type="curve" smooth="yes"/>
      <point x="958" y="108"/>
      <point x="1087" y="152"/>
      <point x="1126" y="225" type="curve"/>
      <point x="1126" y="548" type="line"/>
      <point x="901" y="571" type="line"/>
      <point x="901" y="708" type="line"/>
      <point x="1495" y="708" type="line"/>
      <point x="1495" y="571" type="line"/>
      <point x="1388" y="549" type="line"/>
      <point x="1388" y="66" type="line"/>
      <point x="1253" y="75"/>
      <point x="1020" y="-28"/>
      <point x="780" y="-28" type="curve" smooth="yes"/>
      <point x="353" y="-28"/>
      <point x="74" y="304"/>
    </contour>
  </outline>
</glyph>
<glyph name="H" format="1">
  <advance width="1748"/>
  <unicode hex="0048"/>
  <outline>
    <contour>
      <point x="83" y="0" type="line"/>
      <point x="83" y="116" type="line"/>
      <point x="252" y="154" type="line"/>
      <point x="252" y="1397" type="line"/>
      <point x="81" y="1418" type="line"/>
      <point x="81" y="1553" type="line"/>
      <point x="708" y="1553" type="line"/>
      <point x="708" y="1418" type="line"/>
      <point x="540" y="1398" type="line"/>
      <point x="540" y="853" type="line"/>
      <point x="1209" y="853" type="line"/>
      <point x="1209" y="1399" type="line"/>
      <point x="1042" y="1418" type="line"/>
      <point x="1042" y="1553" type="line"/>
      <point x="1665" y="1553" type="line"/>
      <point x="1665" y="1418" type="line"/>
      <point x="1496" y="1398" type="line"/>
      <point x="1496" y="153" type="line"/>
      <point x="1675" y="115" type="line"/>
      <point x="1675" y="0" type="line"/>
      <point x="1031" y="0" type="line"/>
      <point x="1031" y="115" type="line"/>
      <point x="1209" y="152" type="line"/>
      <point x="1209" y="693" type="line"/>
      <point x="540" y="693" type="line"/>
      <point x="540" y="153" type="line"/>
      <point x="718" y="116" type="line"/>
      <point x="718" y="0" type="line"/>
    </contour>
  </outline>
</glyph>
<glyph name="K" format="1">
  <advance width="1485"/>
  <unicode hex="004B"/>
  <outline>
    <contour>
      <point x="72" y="0" type="line"/>
      <point x="72" y="116" type="line"/>
      <point x="252" y="153" type="line"/>
      <point x="252" y="1396" type="line"/>
      <point x="72" y="1418" type="line"/>
      <point x="72" y="1553" type="line"/>
      <point x="709" y="1553" type="line"/>
      <point x="709" y="1418" type="line"/>
      <point x="537" y="1395" type="line"/>
      <point x="537" y="776" type="line"/>
      <point x="1045" y="1397" type="line"/>
      <point x="887" y="1418" type="line"/>
      <point x="887" y="1463"/>
      <point x="886" y="1508"/>
      <point x="885" y="1553" type="curve"/>
      <point x="1452" y="1553" type="line"/>
      <point x="1452" y="1418" type="line"/>
      <point x="1276" y="1395" type="line"/>
      <point x="827" y="891" type="line"/>
      <point x="989" y="736"/>
      <point x="1264" y="189"/>
      <point x="1358" y="153" type="curve"/>
      <point x="1501" y="116" type="line"/>
      <point x="1501" y="0" type="line"/>
      <point x="1127" y="0" type="line" smooth="yes"/>
      <point x="1029" y="0"/>
      <point x="826" y="587"/>
      <point x="674" y="719" type="curve"/>
      <point x="537" y="565" type="line"/>
      <point x="537" y="153" type="line"/>
      <point x="731" y="116" type="line"/>
      <point x="731" y="0" type="line"/>
    </contour>
  </outline>
</glyph>
<glyph name="P" format="1">
  <advance width="1337"/>
  <unicode hex="0050"/>
  <outline>
    <contour>
      <point x="71" y="0" type="line"/>
      <point x="71" y="116" type="line"/>
      <point x="252" y="154" type="line"/>
      <point x="252" y="1381" type="line"/>
      <point x="83" y="1408" type="line"/>
      <point x="83" y="1553" type="line"/>
      <point x="400" y="1553" type="line" smooth="yes"/>
      <point x="485" y="1553"/>
      <point x="611" y="1567"/>
      <point x="749" y="1567" type="curve" smooth="yes"/>
      <point x="1064" y="1567"/>
      <point x="1316" y="1474"/>
      <point x="1316" y="1109" type="curve" smooth="yes"/>
      <point x="1316" y="778"/>
      <point x="1043" y="596"/>
      <point x="724" y="599" type="curve" smooth="yes"/>
      <point x="636" y="600"/>
      <point x="578" y="599"/>
      <point x="536" y="598" type="curve"/>
      <point x="536" y="153" type="line"/>
      <point x="791" y="116" type="line"/>
      <point x="791" y="0" type="line"/>
    </contour>
    <contour>
      <point x="536" y="750" type="line"/>
      <point x="592" y="741"/>
      <point x="665" y="739"/>
      <point x="718" y="739" type="curve" smooth="yes"/>
      <point x="881" y="739"/>
      <point x="1031" y="818"/>
      <point x="1031" y="1117" type="curve" smooth="yes"/>
      <point x="1031" y="1331"/>
      <point x="897" y="1428"/>
      <point x="691" y="1427" type="curve" smooth="yes"/>
      <point x="644" y="1426"/>
      <point x="573" y="1422"/>
      <point x="536" y="1411" type="curve"/>
    </contour>
  </outline>
</glyph>
<glyph name="Q" format="1">
  <advance width="1580"/>
  <unicode hex="0051"/>
  <outline>
    <contour>
      <point x="75" y="753" type="curve" smooth="yes"/>
      <point x="86" y="1260"/>
      <point x="427" y="1562"/>
      <point x="811" y="1567" type="curve" smooth="yes"/>
      <point x="1238" y="1572"/>
      <point x="1514" y="1239"/>
      <point x="1505" y="789" type="curve"/>
      <point x="1495" y="355"/>
      <point x="1267" y="67"/>
      <point x="951" y="-8" type="curve"/>
      <point x="1021" y="-173"/>
      <point x="1230" y="-155"/>
      <point x="1316" y="-151" type="curve"/>
      <point x="1378" y="-146"/>
      <point x="1436" y="-128"/>
      <point x="1464" y="-115" type="curve"/>
      <point x="1472" y="-292" type="line"/>
      <point x="1434" y="-335"/>
      <point x="1344" y="-376"/>
      <point x="1208" y="-376" type="curve" smooth="yes"/>
      <point x="1044" y="-376"/>
      <point x="870" y="-311"/>
      <point x="807" y="-27" type="curve"/>
      <point x="800" y="-27"/>
      <point x="793" y="-28"/>
      <point x="786" y="-28" type="curve" smooth="yes"/>
      <point x="346" y="-32"/>
      <point x="66" y="307"/>
    </contour>
    <contour>
      <point x="800" y="108" type="curve" smooth="yes"/>
      <point x="1075" y="108"/>
      <point x="1189" y="347"/>
      <point x="1189" y="788" type="curve" smooth="yes"/>
      <point x="1189" y="1087"/>
      <point x="1068" y="1428"/>
      <point x="798" y="1428" type="curve" smooth="yes"/>
      <point x="521" y="1428"/>
      <point x="391" y="1184"/>
      <point x="391" y="754" type="curve" smooth="yes"/>
      <point x="391" y="470"/>
      <point x="521" y="108"/>
    </contour>
  </outline>
</glyph>
<glyph name="S" format="1">
  <advance width="1278"/>
  <unicode hex="0053"/>
  <outline>
    <contour>
      <point x="144" y="63" type="curve"/>
      <point x="144" y="432" type="line"/>
      <point x="267" y="432" type="line"/>
      <point x="347" y="209" type="line"/>
      <point x="422" y="120"/>
      <point x="541" y="105"/>
      <point x="651" y="105" type="curve" smooth="yes"/>
      <point x="773" y="105"/>
      <point x="918" y="167"/>
      <point x="918" y="346" type="curve" smooth="yes"/>
      <point x="918" y="497"/>
      <point x="739" y="588"/>
      <point x="552" y="690" type="curve" smooth="yes"/>
      <point x="352" y="800"/>
      <point x="145" y="926"/>
      <point x="145" y="1158" type="curve" smooth="yes"/>
      <point x="146" y="1436"/>
      <point x="418" y="1567"/>
      <point x="658" y="1567" type="curve" smooth="yes"/>
      <point x="867" y="1567"/>
      <point x="1051" y="1523"/>
      <point x="1100" y="1493" type="curve"/>
      <point x="1100" y="1185" type="line"/>
      <point x="970" y="1185" type="line"/>
      <point x="883" y="1387" type="line"/>
      <point x="856" y="1415"/>
      <point x="760" y="1442"/>
      <point x="671" y="1441" type="curve"/>
      <point x="564" y="1441"/>
      <point x="416" y="1395"/>
      <point x="415" y="1238" type="curve" smooth="yes"/>
      <point x="415" y="1088"/>
      <point x="561" y="994"/>
      <point x="726" y="904" type="curve" smooth="yes"/>
      <point x="945" y="784"/>
      <point x="1200" y="664"/>
      <point x="1199" y="411" type="curve"/>
      <point x="1199" y="137"/>
      <point x="968" y="-26"/>
      <point x="638" y="-26" type="curve" smooth="yes"/>
      <point x="447" y="-26"/>
      <point x="227" y="17"/>
    </contour>
  </outline>
</glyph>
<glyph name="T" format="1">
  <advance width="1375"/>
  <unicode hex="0054"/>
  <outline>
    <contour>
      <point x="327" y="0" type="line"/>
      <point x="327" y="116" type="line"/>
      <point x="564" y="152" type="line"/>
      <point x="564" y="1410" type="line"/>
      <point x="251" y="1386" type="line"/>
      <point x="182" y="1190" type="line"/>
      <point x="40" y="1184" type="line"/>
      <point x="64" y="1553" type="line"/>
      <point x="1339" y="1553" type="line"/>
      <point x="1337" y="1189" type="line"/>
      <point x="1221" y="1176" type="line"/>
      <point x="1155" y="1386" type="line"/>
      <point x="849" y="1410" type="line"/>
      <point x="849" y="153" type="line"/>
      <point x="1089" y="116" type="line"/>
      <point x="1089" y="0" type="line"/>
    </contour>
  </outline>
</glyph>
<glyph name="U" format="1">
  <advance width="1596"/>
  <unicode hex="0055"/>
  <outline>
    <contour>
      <point x="193" y="641" type="curve"/>
      <point x="193" y="885"/>
      <point x="194" y="1148"/>
      <point x="195" y="1396" type="curve"/>
      <point x="37" y="1418" type="line"/>
      <point x="37" y="1553" type="line"/>
      <point x="654" y="1553" type="line"/>
      <point x="654" y="1418" type="line"/>
      <point x="481" y="1396" type="line"/>
      <point x="481" y="630" type="line" smooth="yes"/>
      <point x="481" y="206"/>
      <point x="667" y="117"/>
      <point x="872" y="117" type="curve" smooth="yes"/>
      <point x="1097" y="117"/>
      <point x="1226" y="283"/>
      <point x="1225" y="675" type="curve" smooth="yes"/>
      <point x="1223" y="1394" type="line"/>
      <point x="1049" y="1418" type="line"/>
      <point x="1049" y="1553" type="line"/>
      <point x="1567" y="1553" type="line"/>
      <point x="1567" y="1418" type="line"/>
      <point x="1417" y="1394" type="line"/>
      <point x="1417" y="676" type="line" smooth="yes"/>
      <point x="1417" y="149"/>
      <point x="1154" y="-28"/>
      <point x="833" y="-28" type="curve" smooth="yes"/>
      <point x="382" y="-28"/>
      <point x="191" y="196"/>
    </contour>
  </outline>
</glyph>
<glyph name="X" format="1">
  <advance width="1495"/>
  <unicode hex="0058"/>
  <outline>
    <contour>
      <point x="20" y="0" type="line"/>
      <point x="20" y="115" type="line"/>
      <point x="196" y="153" type="line"/>
      <point x="616" y="762" type="line"/>
      <point x="191" y="1397" type="line"/>
      <point x="36" y="1418" type="line"/>
      <point x="36" y="1553" type="line"/>
      <point x="679" y="1553" type="line"/>
      <point x="679" y="1419" type="line"/>
      <point x="520" y="1398" type="line"/>
      <point x="776" y="943" type="line"/>
      <point x="1049" y="1399" type="line"/>
      <point x="905" y="1418" type="line"/>
      <point x="905" y="1553" type="line"/>
      <point x="1464" y="1553" type="line"/>
      <point x="1464" y="1418" type="line"/>
      <point x="1294" y="1398" type="line"/>
      <point x="874" y="820" type="line"/>
      <point x="1320" y="154" type="line"/>
      <point x="1484" y="115" type="line"/>
      <point x="1484" y="0" type="line"/>
      <point x="837" y="0" type="line"/>
      <point x="837" y="114" type="line"/>
      <point x="998" y="151" type="line"/>
      <point x="716" y="623" type="line"/>
      <point x="447" y="154" type="line"/>
      <point x="637" y="115" type="line"/>
      <point x="637" y="0" type="line"/>
    </contour>
  </outline>
</glyph>
<glyph name="Y" format="1">
  <advance width="1425"/>
  <unicode hex="0059"/>
  <outline>
    <contour>
      <point x="372" y="0" type="line"/>
      <point x="372" y="116" type="line"/>
      <point x="596" y="155" type="line"/>
      <point x="596" y="566" type="line"/>
      <point x="125" y="1399" type="line"/>
      <point x="13" y="1418" type="line"/>
      <point x="13" y="1553" type="line"/>
      <point x="583" y="1553" type="line"/>
      <point x="583" y="1419" type="line"/>
      <point x="458" y="1399" type="line"/>
      <point x="737" y="843" type="line"/>
      <point x="773" y="741" type="line"/>
      <point x="812" y="849" type="line"/>
      <point x="1056" y="1395" type="line"/>
      <point x="894" y="1418" type="line"/>
      <point x="894" y="1463"/>
      <point x="893" y="1508"/>
      <point x="893" y="1553" type="curve"/>
      <point x="1412" y="1553" type="line"/>
      <point x="1412" y="1418" type="line"/>
      <point x="1280" y="1384" type="line"/>
      <point x="883" y="584" type="line"/>
      <point x="883" y="157" type="line"/>
      <point x="1128" y="116" type="line"/>
      <point x="1128" y="0" type="line"/>
    </contour>
  </outline>
</glyph>
<glyph name="asciicircum" format="1">
  <advance width="1423"/>
  <unicode hex="005E"/>
  <outline>
    <contour>
      <point x="181" y="564" type="curve"/>
      <point x="575" y="1531" type="line"/>
      <point x="853" y="1531" type="line"/>
      <point x="1242" y="564" type="line"/>
      <point x="1157" y="564"/>
      <point x="1070" y="563"/>
      <point x="985" y="563" type="curve"/>
      <point x="698" y="1266" type="line"/>
      <point x="404" y="563" type="line"/>
      <point x="330" y="563"/>
      <point x="255" y="564"/>
    </contour>
  </outline>
</glyph>
<glyph name="grave" format="1">
  <advance width="884"/>
  <unicode hex="0060"/>
  <outline>
    <contour>
      <point x="669" y="1338" type="line"/>
      <point x="531" y="1358"/>
      <point x="320" y="1510"/>
      <point x="228" y="1646" type="curve"/>
      <point x="436" y="1821" type="line"/>
      <point x="742" y="1412" type="line"/>
    </contour>
  </outline>
</glyph>
<glyph name="b" format="1">
  <advance width="1300"/>
  <unicode hex="0062"/>
  <outline>
    <contour>
      <point x="172" y="53" type="curve"/>
      <point x="172" y="1420" type="line"/>
      <point x="27" y="1467" type="line"/>
      <point x="27" y="1584" type="line"/>
      <point x="407" y="1627" type="line"/>
      <point x="456" y="1610" type="line"/>
      <point x="456" y="1064" type="line"/>
      <point x="522" y="1111"/>
      <point x="618" y="1152"/>
      <point x="746" y="1152" type="curve" smooth="yes"/>
      <point x="983" y="1152"/>
      <point x="1215" y="1004"/>
      <point x="1215" y="605" type="curve" smooth="yes"/>
      <point x="1215" y="272"/>
      <point x="975" y="-28"/>
      <point x="612" y="-28" type="curve" smooth="yes"/>
      <point x="411" y="-28"/>
      <point x="201" y="24"/>
    </contour>
    <contour>
      <point x="456" y="182" type="line"/>
      <point x="475" y="139"/>
      <point x="539" y="100"/>
      <point x="643" y="100" type="curve" smooth="yes"/>
      <point x="782" y="100"/>
      <point x="922" y="215"/>
      <point x="930" y="568" type="curve" smooth="yes"/>
      <point x="937" y="868"/>
      <point x="778" y="992"/>
      <point x="634" y="992" type="curve" smooth="yes"/>
      <point x="551" y="992"/>
      <point x="492" y="968"/>
      <point x="456" y="949" type="curve"/>
    </contour>
  </outline>
</glyph>
<glyph name="c" format="1">
  <advance width="1095"/>
  <unicode hex="0063"/>
  <outline>
    <contour>
      <point x="87" y="531" type="curve" smooth="yes"/>
      <point x="85" y="910"/>
      <point x="345" y="1138"/>
      <point x="675" y="1150" type="curve" smooth="yes"/>
      <point x="801" y="1154"/>
      <point x="952" y="1133"/>
      <point x="1009" y="1099" type="curve"/>
      <point x="1009" y="815" type="line"/>
      <point x="865" y="815" type="line"/>
      <point x="798" y="977" type="line"/>
      <point x="758" y="1004"/>
      <point x="697" y="1011"/>
      <point x="652" y="1011" type="curve" smooth="yes"/>
      <point x="498" y="1011"/>
      <point x="380" y="877"/>
      <point x="375" y="625" type="curve" smooth="yes"/>
      <point x="367" y="285"/>
      <point x="543" y="146"/>
      <point x="717" y="146" type="curve" smooth="yes"/>
      <point x="830" y="146"/>
      <point x="949" y="177"/>
      <point x="1001" y="213" type="curve"/>
      <point x="1046" y="103" type="line"/>
      <point x="952" y="22"/>
      <point x="790" y="-25"/>
      <point x="610" y="-25" type="curve" smooth="yes"/>
      <point x="273" y="-25"/>
      <point x="89" y="211"/>
    </contour>
  </outline>
</glyph>
<glyph name="d" format="1">
  <advance width="1334"/>
  <unicode hex="0064"/>
  <outline>
    <contour>
      <point x="544" y="-26" type="curve" smooth="yes"/>
      <point x="328" y="-26"/>
      <point x="85" y="142"/>
      <point x="85" y="541" type="curve" smooth="yes"/>
      <point x="85" y="898"/>
      <point x="361" y="1152"/>
      <point x="704" y="1152" type="curve" smooth="yes"/>
      <point x="747" y="1152"/>
      <point x="799" y="1150"/>
      <point x="854" y="1138" type="curve"/>
      <point x="854" y="1417" type="line"/>
      <point x="636" y="1465" type="line"/>
      <point x="636" y="1582" type="line"/>
      <point x="1081" y="1628" type="line"/>
      <point x="1138" y="1603" type="line"/>
      <point x="1138" y="114" type="line"/>
      <point x="1277" y="114" type="line"/>
      <point x="1277" y="21" type="line"/>
      <point x="1231" y="-4"/>
      <point x="1133" y="-30"/>
      <point x="1013" y="-30" type="curve" smooth="yes"/>
      <point x="935" y="-30"/>
      <point x="880" y="-7"/>
      <point x="866" y="60" type="curve"/>
      <point x="814" y="20"/>
      <point x="713" y="-26"/>
    </contour>
    <contour>
      <point x="627" y="132" type="curve" smooth="yes"/>
      <point x="658" y="127"/>
      <point x="687" y="127"/>
      <point x="715" y="131" type="curve"/>
      <point x="779" y="135"/>
      <point x="826" y="152"/>
      <point x="854" y="170" type="curve"/>
      <point x="854" y="975" type="line"/>
      <point x="813" y="1010"/>
      <point x="755" y="1028"/>
      <point x="676" y="1028" type="curve" smooth="yes"/>
      <point x="576" y="1028"/>
      <point x="382" y="952"/>
      <point x="377" y="605" type="curve"/>
      <point x="371" y="310"/>
      <point x="491" y="157"/>
    </contour>
  </outline>
</glyph>
<glyph name="r" format="1">
  <advance width="947"/>
  <unicode hex="0072"/>
  <outline>
    <contour>
      <point x="104" y="0" type="line"/>
      <point x="104" y="114" type="line"/>
      <point x="244" y="138" type="line"/>
      <point x="244" y="863" type="line"/>
      <point x="105" y="951" type="line"/>
      <point x="105" y="1049" type="line"/>
      <point x="430" y="1146" type="line"/>
      <point x="491" y="1127" type="line"/>
      <point x="491" y="949" type="line"/>
      <point x="532" y="1058"/>
      <point x="703" y="1146"/>
      <point x="803" y="1146" type="curve" smooth="yes"/>
      <point x="848" y="1146"/>
      <point x="890" y="1143"/>
      <point x="906" y="1136" type="curve"/>
      <point x="906" y="868" type="line"/>
      <point x="868" y="893"/>
      <point x="798" y="910"/>
      <point x="732" y="910" type="curve" smooth="yes"/>
      <point x="621" y="910"/>
      <point x="561" y="879"/>
      <point x="529" y="858" type="curve"/>
      <point x="529" y="144" type="line"/>
      <point x="784" y="114" type="line"/>
      <point x="784" y="0" type="line"/>
    </contour>
  </outline>
</glyph>
<glyph name="v" format="1">
  <advance width="1243"/>
  <unicode hex="0076"/>
  <outline>
    <contour>
      <point x="519" y="-13" type="line"/>
      <point x="104" y="950" type="line"/>
      <point x="3" y="974" type="line"/>
      <point x="3" y="1119" type="line"/>
      <point x="521" y="1119" type="line"/>
      <point x="521" y="973" type="line"/>
      <point x="417" y="947" type="line"/>
      <point x="604" y="448" type="line"/>
      <point x="677" y="212" type="line"/>
      <point x="740" y="444" type="line"/>
      <point x="905" y="948" type="line"/>
      <point x="781" y="972" type="line"/>
      <point x="781" y="1119" type="line"/>
      <point x="1239" y="1119" type="line"/>
      <point x="1239" y="973" type="line"/>
      <point x="1128" y="943" type="line"/>
      <point x="741" y="-13" type="line"/>
    </contour>
  </outline>
</glyph>
<glyph name="w" format="1">
  <advance width="1777"/>
  <unicode hex="0077"/>
  <outline>
    <contour>
      <point x="421" y="-14" type="line"/>
      <point x="112" y="948" type="line"/>
      <point x="3" y="972" type="line"/>
      <point x="3" y="1119" type="line"/>
      <point x="513" y="1119" type="line"/>
      <point x="513" y="972" type="line"/>
      <point x="398" y="946" type="line"/>
      <point x="544" y="420" type="line"/>
      <point x="587" y="236" type="line"/>
      <point x="619" y="403" type="line"/>
      <point x="809" y="1119" type="line"/>
      <point x="1049" y="1119" type="line"/>
      <point x="1234" y="403" type="line"/>
      <point x="1277" y="228" type="line"/>
      <point x="1316" y="399" type="line"/>
      <point x="1445" y="946" type="line"/>
      <point x="1317" y="972" type="line"/>
      <point x="1317" y="1119" type="line"/>
      <point x="1774" y="1119" type="line"/>
      <point x="1774" y="973" type="line"/>
      <point x="1641" y="944" type="line"/>
      <point x="1366" y="-14" type="line"/>
      <point x="1101" y="-14" type="line"/>
      <point x="920" y="607" type="line"/>
      <point x="878" y="793" type="line"/>
      <point x="840" y="607" type="line"/>
      <point x="675" y="-14" type="line"/>
    </contour>
  </outline>
</glyph>
<glyph name="z" format="1">
  <advance width="1119"/>
  <unicode hex="007A"/>
  <outline>
    <contour>
      <point x="108" y="0" type="line"/>
      <point x="68" y="92" type="line"/>
      <point x="163" y="238" type="line"/>
      <point x="644" y="899" type="line"/>
      <point x="728" y="993" type="line"/>
      <point x="320" y="974" type="line"/>
      <point x="256" y="780" type="line"/>
      <point x="113" y="780" type="line"/>
      <point x="113" y="1119" type="line"/>
      <point x="1023" y="1119" type="line"/>
      <point x="1063" y="1013" type="line"/>
      <point x="539" y="270" type="line"/>
      <point x="426" y="128" type="line"/>
      <point x="861" y="157" type="line"/>
      <point x="923" y="328" type="line"/>
      <point x="1073" y="328" type="line"/>
      <point x="1056" y="0" type="line"/>
    </contour>
  </outline>
</glyph>
<glyph name="braceright" format="1">
  <advance width="1057"/>
  <unicode hex="007D"/>
  <outline>
    <contour>
      <point x="215" y="-59" type="curve"/>
      <point x="515" y="-59" type="line"/>
      <point x="515" y="575" type="line" smooth="yes"/>
      <point x="515" y="622"/>
      <point x="535" y="658"/>
      <point x="566" y="686" type="curve" smooth="yes"/>
      <point x="606" y="723"/>
      <point x="666" y="749"/>
      <point x="731" y="776" type="curve"/>
      <point x="669" y="804"/>
      <point x="611" y="825"/>
      <point x="572" y="858" type="curve"/>
      <point x="537" y="886"/>
      <point x="515" y="920"/>
      <point x="515" y="971" type="curve" smooth="yes"/>
      <point x="515" y="1607" type="line"/>
      <point x="215" y="1607" type="line"/>
      <point x="215" y="1643"/>
      <point x="214" y="1679"/>
      <point x="214" y="1716" type="curve"/>
      <point x="300" y="1739"/>
      <point x="416" y="1777"/>
      <point x="525" y="1777" type="curve" smooth="yes"/>
      <point x="679" y="1777"/>
      <point x="764" y="1724"/>
      <point x="764" y="1527" type="curve" smooth="yes"/>
      <point x="764" y="985" type="line" smooth="yes"/>
      <point x="764" y="919"/>
      <point x="867" y="889"/>
      <point x="973" y="871" type="curve"/>
      <point x="973" y="691" type="line"/>
      <point x="871" y="675"/>
      <point x="764" y="627"/>
      <point x="764" y="568" type="curve" smooth="yes"/>
      <point x="764" y="32" type="line" smooth="yes"/>
      <point x="764" y="-182"/>
      <point x="668" y="-230"/>
      <point x="514" y="-230" type="curve" smooth="yes"/>
      <point x="405" y="-230"/>
      <point x="300" y="-194"/>
      <point x="214" y="-170" type="curve"/>
      <point x="214" y="-133"/>
      <point x="215" y="-96"/>
    </contour>
  </outline>
</glyph>
<glyph name="asciitilde" format="1">
  <advance width="1291"/>
  <unicode hex="007E"/>
  <outline>
    <contour>
      <point x="234" y="749" type="curve"/>
      <point x="147" y="859" type="line"/>
      <point x="181" y="946"/>
      <point x="334" y="1080"/>
      <point x="491" y="1080" type="curve" smooth="yes"/>
      <point x="658" y="1080"/>
      <point x="709" y="928"/>
      <point x="841" y="928" type="curve" smooth="yes"/>
      <point x="934" y="928"/>
      <point x="1013" y="991"/>
      <point x="1056" y="1030" type="curve"/>
      <point x="1143" y="920" type="line"/>
      <point x="1110" y="828"/>
      <point x="963" y="697"/>
      <point x="801" y="697" type="curve" smooth="yes"/>
      <point x="635" y="697"/>
      <point x="590" y="850"/>
      <point x="448" y="850" type="curve" smooth="yes"/>
      <point x="355" y="850"/>
      <point x="278" y="788"/>
    </contour>
  </outline>
</glyph>
<glyph name="sterling" format="1">
  <advance width="1502"/>
  <unicode hex="00A3"/>
  <outline>
    <contour>
      <point x="40" y="67" type="curve" smooth="yes"/>
      <point x="40" y="142"/>
      <point x="148" y="233"/>
      <point x="351" y="229" type="curve"/>
      <point x="375" y="284"/>
      <point x="382" y="362"/>
      <point x="382" y="461" type="curve" smooth="yes"/>
      <point x="382" y="707" type="line"/>
      <point x="214" y="707" type="line"/>
      <point x="214" y="883" type="line"/>
      <point x="382" y="883" type="line"/>
      <point x="382" y="960" type="line" smooth="yes"/>
      <point x="382" y="1265"/>
      <point x="584" y="1568"/>
      <point x="923" y="1568" type="curve" smooth="yes"/>
      <point x="1035" y="1568"/>
      <point x="1139" y="1545"/>
      <point x="1225" y="1472" type="curve"/>
      <point x="1094" y="1232" type="line"/>
      <point x="1079" y="1269"/>
      <point x="971" y="1420"/>
      <point x="821" y="1420" type="curve" smooth="yes"/>
      <point x="720" y="1420"/>
      <point x="666" y="1327"/>
      <point x="666" y="991" type="curve" smooth="yes"/>
      <point x="666" y="883" type="line"/>
      <point x="950" y="883" type="line"/>
      <point x="950" y="707" type="line"/>
      <point x="667" y="707" type="line"/>
      <point x="667" y="661" type="line" smooth="yes"/>
      <point x="667" y="426"/>
      <point x="636" y="316"/>
      <point x="548" y="197" type="curve"/>
      <point x="646" y="188"/>
      <point x="721" y="132"/>
      <point x="859" y="120" type="curve"/>
      <point x="1045" y="98"/>
      <point x="1131" y="200"/>
      <point x="1131" y="292" type="curve" smooth="yes"/>
      <point x="1131" y="355"/>
      <point x="1082" y="408"/>
      <point x="1045" y="434" type="curve"/>
      <point x="1162" y="661" type="line"/>
      <point x="1281" y="630"/>
      <point x="1375" y="510"/>
      <point x="1381" y="368" type="curve"/>
      <point x="1388" y="237"/>
      <point x="1327" y="-24"/>
      <point x="959" y="-37" type="curve"/>
      <point x="659" y="-50"/>
      <point x="523" y="98"/>
      <point x="424" y="87" type="curve"/>
      <point x="371" y="23"/>
      <point x="287" y="-28"/>
      <point x="181" y="-30" type="curve" smooth="yes"/>
      <point x="111" y="-32"/>
      <point x="40" y="-6"/>
    </contour>
  </outline>
</glyph>
<glyph name="currency" format="1">
  <advance width="1467"/>
  <unicode hex="00A4"/>
  <outline>
    <contour>
      <point x="184" y="267" type="line"/>
      <point x="382" y="465" type="line"/>
      <point x="340" y="529"/>
      <point x="316" y="606"/>
      <point x="316" y="689" type="curve" smooth="yes"/>
      <point x="316" y="772"/>
      <point x="340" y="849"/>
      <point x="383" y="913" type="curve"/>
      <point x="186" y="1113" type="line"/>
      <point x="311" y="1240" type="line"/>
      <point x="512" y="1036" type="line"/>
      <point x="574" y="1073"/>
      <point x="646" y="1095"/>
      <point x="724" y="1095" type="curve" smooth="yes"/>
      <point x="805" y="1095"/>
      <point x="881" y="1071"/>
      <point x="945" y="1031" type="curve"/>
      <point x="1158" y="1241" type="line"/>
      <point x="1285" y="1113" type="line"/>
      <point x="1072" y="903" type="line"/>
      <point x="1110" y="841"/>
      <point x="1133" y="768"/>
      <point x="1133" y="689" type="curve" smooth="yes"/>
      <point x="1133" y="609"/>
      <point x="1110" y="534"/>
      <point x="1071" y="472" type="curve"/>
      <point x="1271" y="270" type="line"/>
      <point x="1144" y="144" type="line"/>
      <point x="943" y="345" type="line"/>
      <point x="880" y="305"/>
      <point x="805" y="283"/>
      <point x="724" y="283" type="curve" smooth="yes"/>
      <point x="646" y="283"/>
      <point x="574" y="304"/>
      <point x="512" y="341" type="curve"/>
      <point x="311" y="141" type="line"/>
    </contour>
    <contour>
      <point x="518" y="689" type="curve" smooth="yes"/>
      <point x="518" y="575"/>
      <point x="612" y="474"/>
      <point x="725" y="474" type="curve" smooth="yes"/>
      <point x="839" y="474"/>
      <point x="930" y="575"/>
      <point x="930" y="689" type="curve" smooth="yes"/>
      <point x="930" y="803"/>
      <point x="839" y="903"/>
      <point x="725" y="903" type="curve" smooth="yes"/>
      <point x="612" y="903"/>
      <point x="518" y="803"/>
    </contour>
  </outline>
</glyph>
<glyph name="yen" format="1">
  <advance width="1474"/>
  <unicode hex="00A5"/>
  <outline>
    <contour>
      <point x="363" y="0" type="line"/>
      <point x="363" y="116" type="line"/>
      <point x="583" y="155" type="line"/>
      <point x="583" y="362" type="line"/>
      <point x="195" y="362" type="line"/>
      <point x="195" y="511" type="line"/>
      <point x="583" y="511" type="line"/>
      <point x="583" y="700" type="line"/>
      <point x="570" y="721" type="line"/>
      <point x="195" y="721" type="line"/>
      <point x="195" y="871" type="line"/>
      <point x="477" y="871" type="line"/>
      <point x="153" y="1398" type="line"/>
      <point x="30" y="1418" type="line"/>
      <point x="30" y="1553" type="line"/>
      <point x="605" y="1553" type="line"/>
      <point x="605" y="1419" type="line"/>
      <point x="482" y="1400" type="line"/>
      <point x="697" y="997" type="line"/>
      <point x="751" y="871" type="line"/>
      <point x="771" y="871" type="line"/>
      <point x="834" y="1005" type="line"/>
      <point x="898" y="1129"/>
      <point x="963" y="1267"/>
      <point x="1029" y="1397" type="curve"/>
      <point x="879" y="1418" type="line"/>
      <point x="879" y="1553" type="line"/>
      <point x="1396" y="1553" type="line"/>
      <point x="1396" y="1418" type="line"/>
      <point x="1254" y="1382" type="line"/>
      <point x="957" y="871" type="line"/>
      <point x="1259" y="871" type="line"/>
      <point x="1259" y="721" type="line"/>
      <point x="870" y="721" type="line"/>
      <point x="869" y="719" type="line"/>
      <point x="869" y="511" type="line"/>
      <point x="1259" y="511" type="line"/>
      <point x="1259" y="362" type="line"/>
      <point x="869" y="362" type="line"/>
      <point x="869" y="157" type="line"/>
      <point x="1104" y="116" type="line"/>
      <point x="1104" y="0" type="line"/>
    </contour>
  </outline>
</glyph>
<glyph name="section" format="1">
  <advance width="1342"/>
  <unicode hex="00A7"/>
  <outline>
    <contour>
      <point x="178" y="181" type="line"/>
      <point x="297" y="181" type="line"/>
      <point x="380" y="-19" type="line"/>
      <point x="443" y="-110"/>
      <point x="553" y="-124"/>
      <point x="652" y="-124" type="curve" smooth="yes"/>
      <point x="780" y="-124"/>
      <point x="911" y="-76"/>
      <point x="911" y="62" type="curve" smooth="yes"/>
      <point x="911" y="378"/>
      <point x="157" y="363"/>
      <point x="157" y="792" type="curve" smooth="yes"/>
      <point x="157" y="900"/>
      <point x="216" y="1033"/>
      <point x="299" y="1106" type="curve"/>
      <point x="227" y="1170"/>
      <point x="178" y="1249"/>
      <point x="178" y="1353" type="curve" smooth="yes"/>
      <point x="178" y="1630"/>
      <point x="463" y="1772"/>
      <point x="704" y="1772" type="curve" smooth="yes"/>
      <point x="890" y="1772"/>
      <point x="1030" y="1735"/>
      <point x="1091" y="1700" type="curve"/>
      <point x="1091" y="1406" type="line"/>
      <point x="974" y="1406" type="line"/>
      <point x="871" y="1586" type="line"/>
      <point x="845" y="1617"/>
      <point x="777" y="1640"/>
      <point x="683" y="1640" type="curve" smooth="yes"/>
      <point x="595" y="1640"/>
      <point x="449" y="1576"/>
      <point x="449" y="1410" type="curve"/>
      <point x="447" y="1112"/>
      <point x="1178" y="1146"/>
      <point x="1176" y="699" type="curve" smooth="yes"/>
      <point x="1176" y="581"/>
      <point x="1131" y="462"/>
      <point x="1062" y="387" type="curve"/>
      <point x="1136" y="324"/>
      <point x="1186" y="247"/>
      <point x="1186" y="144" type="curve" smooth="yes"/>
      <point x="1186" y="-165"/>
      <point x="935" y="-265"/>
      <point x="651" y="-265" type="curve" smooth="yes"/>
      <point x="445" y="-265"/>
      <point x="238" y="-220"/>
      <point x="178" y="-185" type="curve"/>
    </contour>
    <contour>
      <point x="403" y="849" type="curve" smooth="yes"/>
      <point x="403" y="671"/>
      <point x="682" y="601"/>
      <point x="907" y="486" type="curve"/>
      <point x="924" y="527"/>
      <point x="938" y="578"/>
      <point x="938" y="617" type="curve" smooth="yes"/>
      <point x="938" y="807"/>
      <point x="663" y="886"/>
      <point x="444" y="1008" type="curve"/>
      <point x="421" y="964"/>
      <point x="403" y="906"/>
    </contour>
  </outline>
</glyph>
<glyph name="ordfeminine" format="1">
  <advance width="1080"/>
  <unicode hex="00AA"/>
  <outline>
    <contour>
      <point x="386" y="734" type="curve" smooth="yes"/>
      <point x="273" y="734"/>
      <point x="128" y="814"/>
      <point x="128" y="981" type="curve" smooth="yes"/>
      <point x="128" y="1222"/>
      <point x="455" y="1271"/>
      <point x="658" y="1271" type="curve"/>
      <point x="658" y="1292" type="line" smooth="yes"/>
      <point x="658" y="1426"/>
      <point x="579" y="1441"/>
      <point x="465" y="1441" type="curve" smooth="yes"/>
      <point x="366" y="1441"/>
      <point x="269" y="1415"/>
      <point x="228" y="1385" type="curve"/>
      <point x="182" y="1507" type="line"/>
      <point x="229" y="1544"/>
      <point x="387" y="1592"/>
      <point x="550" y="1592" type="curve" smooth="yes"/>
      <point x="742" y="1592"/>
      <point x="910" y="1556"/>
      <point x="909" y="1296" type="curve" smooth="yes"/>
      <point x="907" y="866" type="line"/>
      <point x="992" y="866" type="line"/>
      <point x="992" y="773" type="line"/>
      <point x="943" y="759"/>
      <point x="846" y="732"/>
      <point x="775" y="732" type="curve" smooth="yes"/>
      <point x="720" y="732"/>
      <point x="677" y="744"/>
      <point x="667" y="822" type="curve"/>
      <point x="619" y="779"/>
      <point x="530" y="734"/>
    </contour>
    <contour>
      <point x="478" y="882" type="curve" smooth="yes"/>
      <point x="527" y="874"/>
      <point x="590" y="885"/>
      <point x="657" y="912" type="curve"/>
      <point x="656" y="914" type="line"/>
      <point x="657" y="1167" type="line"/>
      <point x="556" y="1163"/>
      <point x="376" y="1135"/>
      <point x="376" y="1011" type="curve" smooth="yes"/>
      <point x="376" y="944"/>
      <point x="415" y="893"/>
    </contour>
  </outline>
</glyph>
<glyph name="guillemotleft" format="1">
  <advance width="2043"/>
  <unicode hex="00AB"/>
  <outline>
    <contour>
      <point x="1037" y="485" type="line"/>
      <point x="1037" y="729" type="line"/>
      <point x="1736" y="1114" type="line"/>
      <point x="1807" y="1000" type="line"/>
      <point x="1328" y="614" type="line"/>
      <point x="1807" y="245" type="line"/>
      <point x="1736" y="122" type="line"/>
    </contour>
    <contour>
      <point x="236" y="485" type="line"/>
      <point x="236" y="729" type="line"/>
      <point x="935" y="1114" type="line"/>
      <point x="1006" y="1000" type="line"/>
      <point x="527" y="614" type="line"/>
      <point x="1006" y="245" type="line"/>
      <point x="935" y="122" type="line"/>
    </contour>
  </outline>
</glyph>
<glyph name="macron" format="1">
  <advance width="997"/>
  <unicode hex="00AF"/>
  <outline>
    <contour>
      <point x="231" y="1386" type="line"/>
      <point x="231" y="1587" type="line"/>
      <point x="782" y="1587" type="line"/>
      <point x="782" y="1386" type="line"/>
    </contour>
  </outline>
</glyph>
<glyph name="degree" format="1">
  <advance width="810"/>
  <unicode hex="00B0"/>
  <outline>
    <contour>
      <point x="404" y="922" type="curve" smooth="yes"/>
      <point x="218" y="922"/>
      <point x="64" y="1075"/>
      <point x="64" y="1258" type="curve" smooth="yes"/>
      <point x="64" y="1442"/>
      <point x="218" y="1594"/>
      <point x="404" y="1594" type="curve" smooth="yes"/>
      <point x="593" y="1594"/>
      <point x="745" y="1439"/>
      <point x="745" y="1258" type="curve" smooth="yes"/>
      <point x="745" y="1075"/>
      <point x="593" y="922"/>
    </contour>
    <contour>
      <point x="404" y="1075" type="curve" smooth="yes"/>
      <point x="506" y="1075"/>
      <point x="582" y="1153"/>
      <point x="582" y="1259" type="curve" smooth="yes"/>
      <point x="582" y="1360"/>
      <point x="504" y="1444"/>
      <point x="404" y="1444" type="curve" smooth="yes"/>
      <point x="299" y="1444"/>
      <point x="226" y="1365"/>
      <point x="226" y="1259" type="curve" smooth="yes"/>
      <point x="226" y="1155"/>
      <point x="301" y="1075"/>
    </contour>
  </outline>
</glyph>
<glyph name="twosuperior" format="1">
  <advance width="1246"/>
  <unicode hex="00B2"/>
  <outline>
    <contour>
      <point x="195" y="720" type="line"/>
      <point x="141" y="859" type="line"/>
      <point x="288" y="937"/>
      <point x="769" y="1208"/>
      <point x="746" y="1397" type="curve"/>
      <point x="739" y="1492"/>
      <point x="666" y="1546"/>
      <point x="551" y="1546" type="curve" smooth="yes"/>
      <point x="429" y="1546"/>
      <point x="303" y="1460"/>
      <point x="231" y="1381" type="curve"/>
      <point x="152" y="1485" type="line"/>
      <point x="214" y="1590"/>
      <point x="405" y="1730"/>
      <point x="609" y="1730" type="curve" smooth="yes"/>
      <point x="908" y="1730"/>
      <point x="1024" y="1593"/>
      <point x="1024" y="1444" type="curve" smooth="yes"/>
      <point x="1024" y="1205"/>
      <point x="758" y="1053"/>
      <point x="408" y="854" type="curve"/>
      <point x="904" y="919" type="line"/>
      <point x="1012" y="1064" type="line"/>
      <point x="1149" y="1021" type="line"/>
      <point x="1087" y="720" type="line"/>
    </contour>
  </outline>
</glyph>
<glyph name="threesuperior" format="1">
  <advance width="1140"/>
  <unicode hex="00B3"/>
  <outline>
    <contour>
      <point x="210" y="664" type="curve"/>
      <point x="210" y="795" type="line"/>
      <point x="277" y="773"/>
      <point x="387" y="756"/>
      <point x="455" y="759" type="curve" smooth="yes"/>
      <point x="634" y="766"/>
      <point x="732" y="835"/>
      <point x="743" y="934" type="curve"/>
      <point x="747" y="1002"/>
      <point x="717" y="1098"/>
      <point x="577" y="1123" type="curve"/>
      <point x="361" y="1074" type="line"/>
      <point x="363" y="1218" type="line"/>
      <point x="550" y="1265"/>
      <point x="649" y="1325"/>
      <point x="682" y="1407" type="curve" smooth="yes"/>
      <point x="690" y="1427"/>
      <point x="690" y="1452"/>
      <point x="688" y="1476" type="curve" smooth="yes"/>
      <point x="685" y="1545"/>
      <point x="585" y="1569"/>
      <point x="526" y="1568" type="curve"/>
      <point x="442" y="1568"/>
      <point x="320" y="1535"/>
      <point x="233" y="1478" type="curve"/>
      <point x="172" y="1585" type="line"/>
      <point x="240" y="1646"/>
      <point x="418" y="1714"/>
      <point x="571" y="1719" type="curve" smooth="yes"/>
      <point x="841" y="1727"/>
      <point x="947" y="1584"/>
      <point x="947" y="1477" type="curve" smooth="yes"/>
      <point x="947" y="1365"/>
      <point x="890" y="1280"/>
      <point x="738" y="1217" type="curve"/>
      <point x="971" y="1206"/>
      <point x="1013" y="1015"/>
      <point x="1013" y="961" type="curve" smooth="yes"/>
      <point x="1013" y="780"/>
      <point x="854" y="612"/>
      <point x="528" y="612" type="curve" smooth="yes"/>
      <point x="393" y="612"/>
      <point x="284" y="636"/>
    </contour>
  </outline>
</glyph>
<glyph name="acute" format="1">
  <advance width="886"/>
  <unicode hex="00B4"/>
  <outline>
    <contour>
      <point x="376" y="1338" type="curve"/>
      <point x="304" y="1412" type="line"/>
      <point x="609" y="1820" type="line"/>
      <point x="817" y="1645" type="line"/>
      <point x="728" y="1506"/>
      <point x="521" y="1390"/>
    </contour>
  </outline>
</glyph>
<glyph name="mu" format="1">
  <advance width="1499"/>
  <unicode hex="00B5"/>
  <unicode hex="03bc"/>
  <outline>
    <contour>
      <point x="247" y="-373" type="line"/>
      <point x="247" y="910" type="line"/>
      <point x="141" y="962" type="line"/>
      <point x="141" y="1068" type="line"/>
      <point x="480" y="1146" type="line"/>
      <point x="526" y="1128" type="line"/>
      <point x="526" y="421" type="line" smooth="yes"/>
      <point x="526" y="223"/>
      <point x="588" y="155"/>
      <point x="723" y="155" type="curve" smooth="yes"/>
      <point x="812" y="155"/>
      <point x="899" y="194"/>
      <point x="926" y="218" type="curve"/>
      <point x="926" y="902" type="line"/>
      <point x="800" y="956" type="line"/>
      <point x="800" y="1070" type="line"/>
      <point x="1161" y="1146" type="line"/>
      <point x="1205" y="1129" type="line"/>
      <point x="1205" y="114" type="line"/>
      <point x="1321" y="114" type="line"/>
      <point x="1321" y="20" type="line"/>
      <point x="1280" y="-7"/>
      <point x="1169" y="-31"/>
      <point x="1080" y="-31" type="curve" smooth="yes"/>
      <point x="1008" y="-31"/>
      <point x="954" y="-2"/>
      <point x="954" y="69" type="curve" smooth="yes"/>
      <point x="954" y="120" type="line"/>
      <point x="861" y="23"/>
      <point x="747" y="-25"/>
      <point x="641" y="-25" type="curve" smooth="yes"/>
      <point x="598" y="-25"/>
      <point x="560" y="-20"/>
      <point x="526" y="-11" type="curve"/>
      <point x="526" y="-373" type="line"/>
    </contour>
  </outline>
</glyph>
<glyph name="paragraph" format="1">
  <advance width="1497"/>
  <unicode hex="00B6"/>
  <outline>
    <contour>
      <point x="400" y="0" type="line"/>
      <point x="400" y="118" type="line"/>
      <point x="606" y="159" type="line"/>
      <point x="606" y="665" type="line"/>
      <point x="336" y="665"/>
      <point x="144" y="804"/>
      <point x="144" y="1116" type="curve" smooth="yes"/>
      <point x="144" y="1383"/>
      <point x="298" y="1573"/>
      <point x="686" y="1573" type="curve" smooth="yes"/>
      <point x="780" y="1573"/>
      <point x="1122" y="1556"/>
      <point x="1239" y="1553" type="curve"/>
      <point x="1434" y="1553" type="line"/>
      <point x="1434" y="1413" type="line"/>
      <point x="1246" y="1366" type="line"/>
      <point x="1246" y="159" type="line"/>
      <point x="1426" y="118" type="line"/>
      <point x="1426" y="0" type="line"/>
      <point x="1024" y="0" type="line"/>
      <point x="1022" y="1386" type="line"/>
      <point x="837" y="1386" type="line"/>
      <point x="837" y="0" type="line"/>
    </contour>
  </outline>
</glyph>
<glyph name="periodcentered" format="1">
  <advance width="744"/>
  <unicode hex="00B7"/>
  <outline>
    <contour>
      <point x="356" y="672" type="curve" smooth="yes"/>
      <point x="270" y="672"/>
      <point x="186" y="730"/>
      <point x="186" y="830" type="curve" smooth="yes"/>
      <point x="186" y="940"/>
      <point x="293" y="1022"/>
      <point x="386" y="1022" type="curve" smooth="yes"/>
      <point x="504" y="1022"/>
      <point x="558" y="949"/>
      <point x="558" y="859" type="curve" smooth="yes"/>
      <point x="558" y="744"/>
      <point x="455" y="672"/>
    </contour>
  </outline>
</glyph>
<glyph name="cedilla" format="1">
  <advance width="648"/>
  <unicode hex="00B8"/>
  <outline>
    <contour>
      <point x="204" y="6" type="curve"/>
      <point x="354" y="6" type="line"/>
      <point x="349" y="-27"/>
      <point x="349" y="-87"/>
      <point x="353" y="-128" type="curve"/>
      <point x="529" y="-138"/>
      <point x="585" y="-247"/>
      <point x="585" y="-320" type="curve" smooth="yes"/>
      <point x="585" y="-452"/>
      <point x="479" y="-522"/>
      <point x="328" y="-529" type="curve" smooth="yes"/>
      <point x="207" y="-535"/>
      <point x="135" y="-514"/>
      <point x="93" y="-503" type="curve"/>
      <point x="93" y="-375" type="line"/>
      <point x="125" y="-383"/>
      <point x="193" y="-389"/>
      <point x="213" y="-389" type="curve" smooth="yes"/>
      <point x="270" y="-389"/>
      <point x="313" y="-373"/>
      <point x="313" y="-310" type="curve" smooth="yes"/>
      <point x="313" y="-262"/>
      <point x="276" y="-234"/>
      <point x="210" y="-234" type="curve" smooth="yes"/>
      <point x="194" y="-234"/>
      <point x="160" y="-237"/>
      <point x="156" y="-238" type="curve"/>
      <point x="157" y="-173"/>
      <point x="180" y="-50"/>
    </contour>
  </outline>
</glyph>
<glyph name="ordmasculine" format="1">
  <advance width="1095"/>
  <unicode hex="00BA"/>
  <outline>
    <contour>
      <point x="533" y="734" type="curve" smooth="yes"/>
      <point x="280" y="733"/>
      <point x="105" y="883"/>
      <point x="109" y="1166" type="curve" smooth="yes"/>
      <point x="114" y="1477"/>
      <point x="358" y="1590"/>
      <point x="553" y="1593" type="curve" smooth="yes"/>
      <point x="830" y="1597"/>
      <point x="989" y="1422"/>
      <point x="986" y="1156" type="curve" smooth="yes"/>
      <point x="982" y="847"/>
      <point x="731" y="735"/>
    </contour>
    <contour>
      <point x="545" y="854" type="curve"/>
      <point x="661" y="854"/>
      <point x="723" y="906"/>
      <point x="723" y="1148" type="curve" smooth="yes"/>
      <point x="723" y="1351"/>
      <point x="652" y="1476"/>
      <point x="551" y="1475" type="curve"/>
      <point x="460" y="1473"/>
      <point x="371" y="1412"/>
      <point x="371" y="1172" type="curve" smooth="yes"/>
      <point x="371" y="966"/>
      <point x="452" y="853"/>
    </contour>
  </outline>
</glyph>
<glyph name="onequarter" format="1">
  <advance width="2686"/>
  <unicode hex="00BC"/>
  <outline>
    <contour>
      <point x="822" y="-281" type="line"/>
      <point x="1609" y="1886" type="line"/>
      <point x="1787" y="1827" type="line"/>
      <point x="998" y="-343" type="line"/>
    </contour>
    <contour>
      <point x="273" y="718" type="line"/>
      <point x="273" y="833" type="line"/>
      <point x="538" y="868" type="line"/>
      <point x="538" y="1444" type="line"/>
      <point x="469" y="1434"/>
      <point x="366" y="1416"/>
      <point x="289" y="1402" type="curve"/>
      <point x="260" y="1532" type="line"/>
      <point x="391" y="1560"/>
      <point x="693" y="1684"/>
      <point x="741" y="1723" type="curve"/>
      <point x="810" y="1708" type="line"/>
      <point x="809" y="867" type="line"/>
      <point x="1055" y="833" type="line"/>
      <point x="1055" y="718" type="line"/>
    </contour>
    <contour>
      <point x="1444" y="267" type="line"/>
      <point x="1987" y="1081" type="line"/>
      <point x="2087" y="1081" type="line"/>
      <point x="2211" y="949" type="line"/>
      <point x="1731" y="379" type="line"/>
      <point x="1654" y="284" type="line"/>
      <point x="2012" y="318" type="line"/>
      <point x="2020" y="539" type="line"/>
      <point x="2238" y="564" type="line"/>
      <point x="2238" y="339" type="line"/>
      <point x="2469" y="361" type="line"/>
      <point x="2470" y="142" type="line"/>
      <point x="2238" y="142" type="line"/>
      <point x="2238" y="-177" type="line"/>
      <point x="1995" y="-177" type="line"/>
      <point x="2006" y="142" type="line"/>
      <point x="1495" y="142" type="line"/>
    </contour>
  </outline>
</glyph>
<glyph name="onehalf" format="1">
  <advance width="2686"/>
  <unicode hex="00BD"/>
  <outline>
    <contour>
      <point x="822" y="-287" type="line"/>
      <point x="1609" y="1881" type="line"/>
      <point x="1787" y="1829" type="line"/>
      <point x="998" y="-343" type="line"/>
    </contour>
    <contour>
      <point x="273" y="718" type="line"/>
      <point x="273" y="833" type="line"/>
      <point x="538" y="868" type="line"/>
      <point x="538" y="1444" type="line"/>
      <point x="469" y="1434"/>
      <point x="366" y="1416"/>
      <point x="289" y="1402" type="curve"/>
      <point x="260" y="1532" type="line"/>
      <point x="391" y="1560"/>
      <point x="693" y="1684"/>
      <point x="741" y="1723" type="curve"/>
      <point x="810" y="1708" type="line"/>
      <point x="809" y="867" type="line"/>
      <point x="1055" y="833" type="line"/>
      <point x="1055" y="718" type="line"/>
    </contour>
    <contour>
      <point x="1521" y="137" type="line"/>
      <point x="1667" y="215"/>
      <point x="2148" y="486"/>
      <point x="2126" y="675" type="curve"/>
      <point x="2118" y="770"/>
      <point x="2045" y="824"/>
      <point x="1931" y="824" type="curve" smooth="yes"/>
      <point x="1809" y="824"/>
      <point x="1682" y="738"/>
      <point x="1611" y="659" type="curve"/>
      <point x="1532" y="763" type="line"/>
      <point x="1593" y="868"/>
      <point x="1785" y="1008"/>
      <point x="1989" y="1008" type="curve" smooth="yes"/>
      <point x="2288" y="1008"/>
      <point x="2404" y="871"/>
      <point x="2404" y="722" type="curve" smooth="yes"/>
      <point x="2404" y="483"/>
      <point x="2138" y="331"/>
      <point x="1788" y="132" type="curve"/>
      <point x="2284" y="197" type="line"/>
      <point x="2392" y="342" type="line"/>
      <point x="2529" y="299" type="line"/>
      <point x="2466" y="-2" type="line"/>
      <point x="1575" y="-2" type="line"/>
    </contour>
  </outline>
</glyph>
<glyph name="Agrave" format="1">
  <advance width="1554"/>
  <unicode hex="00C0"/>
  <outline>
    <contour>
      <point x="370" y="1747" type="curve"/>
      <point x="543" y="1920" type="line"/>
      <point x="887" y="1683" type="line"/>
      <point x="806" y="1599" type="line"/>
      <point x="727" y="1607"/>
      <point x="488" y="1664"/>
    </contour>
    <contour>
      <point x="4" y="0" type="line"/>
      <point x="4" y="116" type="line"/>
      <point x="141" y="152" type="line"/>
      <point x="646" y="1553" type="line"/>
      <point x="908" y="1553" type="line"/>
      <point x="1395" y="152" type="line"/>
      <point x="1550" y="115" type="line"/>
      <point x="1550" y="0" type="line"/>
      <point x="934" y="0" type="line"/>
      <point x="934" y="115" type="line"/>
      <point x="1081" y="154" type="line"/>
      <point x="1012" y="379" type="line"/>
      <point x="442" y="379" type="line"/>
      <point x="371" y="156" type="line"/>
      <point x="528" y="116" type="line"/>
      <point x="528" y="0" type="line"/>
    </contour>
    <contour>
      <point x="492" y="535" type="line"/>
      <point x="963" y="535" type="line"/>
      <point x="817" y="1006" type="line"/>
      <point x="734" y="1292" type="line"/>
    </contour>
  </outline>
</glyph>
<glyph name="Atilde" format="1">
  <advance width="1554"/>
  <unicode hex="00C3"/>
  <outline>
    <contour>
      <point x="435" y="1653" type="curve"/>
      <point x="363" y="1728" type="line"/>
      <point x="409" y="1836"/>
      <point x="560" y="1920"/>
      <point x="657" y="1920" type="curve" smooth="yes"/>
      <point x="797" y="1920"/>
      <point x="846" y="1809"/>
      <point x="936" y="1809" type="curve" smooth="yes"/>
      <point x="1010" y="1809"/>
      <point x="1067" y="1844"/>
      <point x="1110" y="1884" type="curve"/>
      <point x="1183" y="1797" type="line"/>
      <point x="1136" y="1690"/>
      <point x="991" y="1615"/>
      <point x="893" y="1615" type="curve" smooth="yes"/>
      <point x="754" y="1615"/>
      <point x="701" y="1730"/>
      <point x="610" y="1730" type="curve" smooth="yes"/>
      <point x="546" y="1730"/>
      <point x="479" y="1692"/>
    </contour>
    <contour>
      <point x="4" y="0" type="line"/>
      <point x="4" y="116" type="line"/>
      <point x="141" y="152" type="line"/>
      <point x="646" y="1553" type="line"/>
      <point x="908" y="1553" type="line"/>
      <point x="1395" y="152" type="line"/>
      <point x="1550" y="115" type="line"/>
      <point x="1550" y="0" type="line"/>
      <point x="934" y="0" type="line"/>
      <point x="934" y="115" type="line"/>
      <point x="1081" y="154" type="line"/>
      <point x="1012" y="379" type="line"/>
      <point x="442" y="379" type="line"/>
      <point x="371" y="156" type="line"/>
      <point x="528" y="116" type="line"/>
      <point x="528" y="0" type="line"/>
    </contour>
    <contour>
      <point x="492" y="535" type="line"/>
      <point x="963" y="535" type="line"/>
      <point x="817" y="1006" type="line"/>
      <point x="734" y="1292" type="line"/>
    </contour>
  </outline>
</glyph>
<glyph name="Aring" format="1">
  <advance width="1554"/>
  <unicode hex="00C5"/>
  <outline>
    <contour>
      <point x="4" y="0" type="line"/>
      <point x="4" y="116" type="line"/>
      <point x="141" y="152" type="line"/>
      <point x="619" y="1477" type="line"/>
      <point x="548" y="1518"/>
      <point x="500" y="1588"/>
      <point x="500" y="1678" type="curve" smooth="yes"/>
      <point x="500" y="1825"/>
      <point x="621" y="1920"/>
      <point x="777" y="1920" type="curve" smooth="yes"/>
      <point x="934" y="1920"/>
      <point x="1056" y="1822"/>
      <point x="1056" y="1678" type="curve" smooth="yes"/>
      <point x="1056" y="1587"/>
      <point x="1006" y="1517"/>
      <point x="934" y="1476" type="curve"/>
      <point x="1395" y="152" type="line"/>
      <point x="1550" y="115" type="line"/>
      <point x="1550" y="0" type="line"/>
      <point x="934" y="0" type="line"/>
      <point x="934" y="115" type="line"/>
      <point x="1081" y="154" type="line"/>
      <point x="1012" y="379" type="line"/>
      <point x="442" y="379" type="line"/>
      <point x="371" y="156" type="line"/>
      <point x="528" y="116" type="line"/>
      <point x="528" y="0" type="line"/>
    </contour>
    <contour>
      <point x="777" y="1555" type="curve" smooth="yes"/>
      <point x="849" y="1555"/>
      <point x="905" y="1606"/>
      <point x="905" y="1677" type="curve" smooth="yes"/>
      <point x="905" y="1746"/>
      <point x="849" y="1801"/>
      <point x="777" y="1801" type="curve" smooth="yes"/>
      <point x="703" y="1801"/>
      <point x="648" y="1748"/>
      <point x="648" y="1677" type="curve" smooth="yes"/>
      <point x="648" y="1606"/>
      <point x="703" y="1555"/>
    </contour>
    <contour>
      <point x="492" y="535" type="line"/>
      <point x="963" y="535" type="line"/>
      <point x="817" y="1006" type="line"/>
      <point x="734" y="1292" type="line"/>
    </contour>
  </outline>
</glyph>
<glyph name="Ccedilla" format="1">
  <advance width="1441"/>
  <unicode hex="00C7"/>
  <outline>
    <contour>
      <point x="73" y="724" type="curve" smooth="yes"/>
      <point x="74" y="1241"/>
      <point x="479" y="1567"/>
      <point x="921" y="1567" type="curve" smooth="yes"/>
      <point x="1120" y="1567"/>
      <point x="1252" y="1519"/>
      <point x="1342" y="1500" type="curve"/>
      <point x="1324" y="1154" type="line"/>
      <point x="1159" y="1154" type="line"/>
      <point x="1095" y="1342" type="line"/>
      <point x="1044" y="1389"/>
      <point x="983" y="1412"/>
      <point x="840" y="1412" type="curve" smooth="yes"/>
      <point x="591" y="1412"/>
      <point x="385" y="1193"/>
      <point x="385" y="803" type="curve" smooth="yes"/>
      <point x="385" y="444"/>
      <point x="550" y="114"/>
      <point x="861" y="114" type="curve" smooth="yes"/>
      <point x="1025" y="114"/>
      <point x="1100" y="155"/>
      <point x="1136" y="212" type="curve"/>
      <point x="1207" y="392" type="line"/>
      <point x="1343" y="392" type="line"/>
      <point x="1343" y="65" type="line"/>
      <point x="1255" y="61"/>
      <point x="1148" y="-11"/>
      <point x="912" y="-25" type="curve"/>
      <point x="910" y="-58"/>
      <point x="911" y="-98"/>
      <point x="914" y="-128" type="curve"/>
      <point x="1090" y="-138"/>
      <point x="1146" y="-247"/>
      <point x="1146" y="-320" type="curve" smooth="yes"/>
      <point x="1146" y="-452"/>
      <point x="1040" y="-522"/>
      <point x="889" y="-529" type="curve" smooth="yes"/>
      <point x="768" y="-535"/>
      <point x="696" y="-514"/>
      <point x="654" y="-503" type="curve"/>
      <point x="654" y="-375" type="line"/>
      <point x="686" y="-383"/>
      <point x="754" y="-389"/>
      <point x="774" y="-389" type="curve" smooth="yes"/>
      <point x="831" y="-389"/>
      <point x="874" y="-373"/>
      <point x="874" y="-310" type="curve" smooth="yes"/>
      <point x="874" y="-262"/>
      <point x="836" y="-234"/>
      <point x="771" y="-234" type="curve" smooth="yes"/>
      <point x="755" y="-234"/>
      <point x="721" y="-237"/>
      <point x="717" y="-238" type="curve"/>
      <point x="718" y="-183"/>
      <point x="734" y="-87"/>
      <point x="753" y="-25" type="curve"/>
      <point x="328" y="6"/>
      <point x="73" y="316"/>
    </contour>
  </outline>
</glyph>
<glyph name="Ecircumflex" format="1">
  <advance width="1380"/>
  <unicode hex="00CA"/>
  <outline>
    <contour>
      <point x="460" y="1605" type="line"/>
      <point x="364" y="1667" type="line"/>
      <point x="629" y="1920" type="line"/>
      <point x="843" y="1920" type="line"/>
      <point x="1107" y="1668" type="line"/>
      <point x="1006" y="1605" type="line"/>
      <point x="737" y="1751" type="line"/>
    </contour>
    <contour>
      <point x="101" y="0" type="line"/>
      <point x="101" y="116" type="line"/>
      <point x="258" y="152" type="line"/>
      <point x="258" y="1397" type="line"/>
      <point x="106" y="1418" type="line"/>
      <point x="106" y="1553" type="line"/>
      <point x="1199" y="1553" type="line"/>
      <point x="1229" y="1235" type="line"/>
      <point x="1065" y="1235" type="line"/>
      <point x="992" y="1399" type="line"/>
      <point x="543" y="1416" type="line"/>
      <point x="543" y="870" type="line"/>
      <point x="849" y="878" type="line"/>
      <point x="893" y="1031" type="line"/>
      <point x="1040" y="1031" type="line"/>
      <point x="1040" y="568" type="line"/>
      <point x="893" y="568" type="line"/>
      <point x="849" y="724" type="line"/>
      <point x="543" y="730" type="line"/>
      <point x="543" y="137" type="line"/>
      <point x="1049" y="162" type="line"/>
      <point x="1165" y="363" type="line"/>
      <point x="1325" y="332" type="line"/>
      <point x="1274" y="0" type="line"/>
    </contour>
  </outline>
</glyph>
<glyph name="Edieresis" format="1">
  <advance width="1380"/>
  <unicode hex="00CB"/>
  <outline>
    <contour>
      <point x="978" y="1633" type="curve" smooth="yes"/>
      <point x="897" y="1633"/>
      <point x="821" y="1681"/>
      <point x="821" y="1766" type="curve" smooth="yes"/>
      <point x="821" y="1854"/>
      <point x="914" y="1920"/>
      <point x="1002" y="1920" type="curve" smooth="yes"/>
      <point x="1114" y="1920"/>
      <point x="1158" y="1862"/>
      <point x="1158" y="1788" type="curve" smooth="yes"/>
      <point x="1158" y="1693"/>
      <point x="1071" y="1633"/>
    </contour>
    <contour>
      <point x="465" y="1632" type="curve" smooth="yes"/>
      <point x="383" y="1632"/>
      <point x="310" y="1680"/>
      <point x="310" y="1764" type="curve" smooth="yes"/>
      <point x="310" y="1854"/>
      <point x="402" y="1920"/>
      <point x="491" y="1920" type="curve" smooth="yes"/>
      <point x="603" y="1920"/>
      <point x="650" y="1861"/>
      <point x="650" y="1787" type="curve" smooth="yes"/>
      <point x="650" y="1693"/>
      <point x="560" y="1632"/>
    </contour>
    <contour>
      <point x="101" y="0" type="line"/>
      <point x="101" y="116" type="line"/>
      <point x="258" y="152" type="line"/>
      <point x="258" y="1397" type="line"/>
      <point x="106" y="1418" type="line"/>
      <point x="106" y="1553" type="line"/>
      <point x="1199" y="1553" type="line"/>
      <point x="1229" y="1235" type="line"/>
      <point x="1065" y="1235" type="line"/>
      <point x="992" y="1399" type="line"/>
      <point x="543" y="1416" type="line"/>
      <point x="543" y="870" type="line"/>
      <point x="849" y="878" type="line"/>
      <point x="893" y="1031" type="line"/>
      <point x="1040" y="1031" type="line"/>
      <point x="1040" y="568" type="line"/>
      <point x="893" y="568" type="line"/>
      <point x="849" y="724" type="line"/>
      <point x="543" y="730" type="line"/>
      <point x="543" y="137" type="line"/>
      <point x="1049" y="162" type="line"/>
      <point x="1165" y="363" type="line"/>
      <point x="1325" y="332" type="line"/>
      <point x="1274" y="0" type="line"/>
    </contour>
  </outline>
</glyph>
<glyph name="Igrave" format="1">
  <advance width="811"/>
  <unicode hex="00CC"/>
  <outline>
    <contour>
      <point x="432" y="1599" type="line"/>
      <point x="353" y="1607"/>
      <point x="114" y="1664"/>
      <point x="-4" y="1747" type="curve"/>
      <point x="168" y="1920" type="line"/>
      <point x="512" y="1683" type="line"/>
    </contour>
    <contour>
      <point x="77" y="0" type="line"/>
      <point x="77" y="116" type="line"/>
      <point x="261" y="153" type="line"/>
      <point x="261" y="1397" type="line"/>
      <point x="78" y="1418" type="line"/>
      <point x="78" y="1553" type="line"/>
      <point x="726" y="1553" type="line"/>
      <point x="726" y="1418" type="line"/>
      <point x="550" y="1396" type="line"/>
      <point x="550" y="154" type="line"/>
      <point x="736" y="116" type="line"/>
      <point x="736" y="0" type="line"/>
    </contour>
  </outline>
</glyph>
<glyph name="Idieresis" format="1">
  <advance width="811"/>
  <unicode hex="00CF"/>
  <outline>
    <contour>
      <point x="646" y="1633" type="curve" smooth="yes"/>
      <point x="565" y="1633"/>
      <point x="489" y="1681"/>
      <point x="489" y="1766" type="curve" smooth="yes"/>
      <point x="489" y="1854"/>
      <point x="583" y="1920"/>
      <point x="671" y="1920" type="curve" smooth="yes"/>
      <point x="782" y="1920"/>
      <point x="827" y="1862"/>
      <point x="827" y="1788" type="curve" smooth="yes"/>
      <point x="827" y="1693"/>
      <point x="739" y="1633"/>
    </contour>
    <contour>
      <point x="133" y="1632" type="curve" smooth="yes"/>
      <point x="51" y="1632"/>
      <point x="-21" y="1680"/>
      <point x="-21" y="1764" type="curve" smooth="yes"/>
      <point x="-21" y="1854"/>
      <point x="70" y="1920"/>
      <point x="159" y="1920" type="curve" smooth="yes"/>
      <point x="271" y="1920"/>
      <point x="319" y="1861"/>
      <point x="319" y="1787" type="curve" smooth="yes"/>
      <point x="319" y="1693"/>
      <point x="228" y="1632"/>
    </contour>
    <contour>
      <point x="77" y="0" type="line"/>
      <point x="77" y="116" type="line"/>
      <point x="261" y="153" type="line"/>
      <point x="261" y="1397" type="line"/>
      <point x="78" y="1418" type="line"/>
      <point x="78" y="1553" type="line"/>
      <point x="726" y="1553" type="line"/>
      <point x="726" y="1418" type="line"/>
      <point x="550" y="1396" type="line"/>
      <point x="550" y="154" type="line"/>
      <point x="736" y="116" type="line"/>
      <point x="736" y="0" type="line"/>
    </contour>
  </outline>
</glyph>
<glyph name="Oslash" format="1">
  <advance width="1580"/>
  <unicode hex="00D8"/>
  <outline>
    <contour>
      <point x="405" y="-168" type="line"/>
      <point x="482" y="32" type="line"/>
      <point x="222" y="148"/>
      <point x="68" y="421"/>
      <point x="75" y="753" type="curve" smooth="yes"/>
      <point x="86" y="1260"/>
      <point x="427" y="1562"/>
      <point x="811" y="1567" type="curve" smooth="yes"/>
      <point x="889" y="1568"/>
      <point x="963" y="1557"/>
      <point x="1030" y="1537" type="curve"/>
      <point x="1084" y="1692" type="line"/>
      <point x="1193" y="1653" type="line"/>
      <point x="1136" y="1493" type="line"/>
      <point x="1372" y="1372"/>
      <point x="1511" y="1110"/>
      <point x="1505" y="789" type="curve" smooth="yes"/>
      <point x="1494" y="283"/>
      <point x="1185" y="-25"/>
      <point x="786" y="-28" type="curve" smooth="yes"/>
      <point x="717" y="-28"/>
      <point x="651" y="-21"/>
      <point x="591" y="-5" type="curve"/>
      <point x="513" y="-207" type="line"/>
    </contour>
    <contour>
      <point x="562" y="221" type="curve"/>
      <point x="962" y="1378" type="line"/>
      <point x="915" y="1410"/>
      <point x="860" y="1428"/>
      <point x="798" y="1428" type="curve" smooth="yes"/>
      <point x="521" y="1428"/>
      <point x="391" y="1184"/>
      <point x="391" y="754" type="curve" smooth="yes"/>
      <point x="391" y="569"/>
      <point x="446" y="350"/>
    </contour>
    <contour>
      <point x="657" y="144" type="line"/>
      <point x="699" y="121"/>
      <point x="747" y="108"/>
      <point x="800" y="108" type="curve" smooth="yes"/>
      <point x="1075" y="108"/>
      <point x="1189" y="347"/>
      <point x="1189" y="788" type="curve" smooth="yes"/>
      <point x="1189" y="967"/>
      <point x="1145" y="1161"/>
      <point x="1053" y="1288" type="curve"/>
    </contour>
  </outline>
</glyph>
<glyph name="germandbls" format="1">
  <advance width="1416"/>
  <unicode hex="00DF"/>
  <outline>
    <contour>
      <point x="55" y="0" type="line"/>
      <point x="55" y="119" type="line"/>
      <point x="211" y="161" type="line"/>
      <point x="211" y="871" type="line" smooth="yes"/>
      <point x="211" y="1382"/>
      <point x="511" y="1568"/>
      <point x="814" y="1568" type="curve" smooth="yes"/>
      <point x="963" y="1568"/>
      <point x="1170" y="1503"/>
      <point x="1170" y="1283" type="curve" smooth="yes"/>
      <point x="1170" y="1045"/>
      <point x="926" y="1010"/>
      <point x="926" y="839" type="curve" smooth="yes"/>
      <point x="926" y="620"/>
      <point x="1387" y="683"/>
      <point x="1387" y="352" type="curve" smooth="yes"/>
      <point x="1387" y="122"/>
      <point x="1229" y="-22"/>
      <point x="945" y="-22" type="curve" smooth="yes"/>
      <point x="868" y="-22"/>
      <point x="728" y="-15"/>
      <point x="674" y="9" type="curve"/>
      <point x="674" y="196" type="line"/>
      <point x="722" y="164"/>
      <point x="824" y="114"/>
      <point x="923" y="114" type="curve" smooth="yes"/>
      <point x="1023" y="114"/>
      <point x="1116" y="161"/>
      <point x="1116" y="288" type="curve" smooth="yes"/>
      <point x="1116" y="510"/>
      <point x="681" y="420"/>
      <point x="681" y="740" type="curve" smooth="yes"/>
      <point x="681" y="923"/>
      <point x="912" y="1001"/>
      <point x="912" y="1223" type="curve" smooth="yes"/>
      <point x="912" y="1336"/>
      <point x="862" y="1426"/>
      <point x="748" y="1426" type="curve" smooth="yes"/>
      <point x="572" y="1426"/>
      <point x="494" y="1304"/>
      <point x="494" y="935" type="curve" smooth="yes"/>
      <point x="494" y="0" type="line"/>
    </contour>
  </outline>
</glyph>
<glyph name="adieresis" format="1">
  <advance width="1191"/>
  <unicode hex="00E4"/>
  <outline>
    <contour>
      <point x="819" y="1363" type="curve" smooth="yes"/>
      <point x="738" y="1363"/>
      <point x="663" y="1410"/>
      <point x="663" y="1495" type="curve" smooth="yes"/>
      <point x="663" y="1583"/>
      <point x="756" y="1648"/>
      <point x="844" y="1648" type="curve" smooth="yes"/>
      <point x="956" y="1648"/>
      <point x="1000" y="1591"/>
      <point x="1000" y="1517" type="curve" smooth="yes"/>
      <point x="1000" y="1422"/>
      <point x="912" y="1363"/>
    </contour>
    <contour>
      <point x="318" y="1363" type="curve" smooth="yes"/>
      <point x="236" y="1363"/>
      <point x="164" y="1409"/>
      <point x="164" y="1493" type="curve" smooth="yes"/>
      <point x="164" y="1583"/>
      <point x="255" y="1648"/>
      <point x="344" y="1648" type="curve" smooth="yes"/>
      <point x="456" y="1648"/>
      <point x="503" y="1590"/>
      <point x="503" y="1516" type="curve" smooth="yes"/>
      <point x="503" y="1422"/>
      <point x="413" y="1363"/>
    </contour>
    <contour>
      <point x="88" y="363" type="curve"/>
      <point x="133" y="616"/>
      <point x="544" y="686"/>
      <point x="737" y="686" type="curve"/>
      <point x="737" y="724" type="line" smooth="yes"/>
      <point x="737" y="936"/>
      <point x="642" y="980"/>
      <point x="498" y="980" type="curve" smooth="yes"/>
      <point x="366" y="980"/>
      <point x="242" y="930"/>
      <point x="184" y="898" type="curve"/>
      <point x="130" y="1025" type="line"/>
      <point x="197" y="1080"/>
      <point x="386" y="1146"/>
      <point x="591" y="1146" type="curve" smooth="yes"/>
      <point x="835" y="1146"/>
      <point x="1022" y="1065"/>
      <point x="1022" y="754" type="curve" smooth="yes"/>
      <point x="1021" y="114" type="line"/>
      <point x="1150" y="114" type="line"/>
      <point x="1150" y="25" type="line"/>
      <point x="1092" y="-13"/>
      <point x="995" y="-26"/>
      <point x="921" y="-26" type="curve" smooth="yes"/>
      <point x="871" y="-26"/>
      <point x="768" y="-14"/>
      <point x="768" y="87" type="curve" smooth="yes"/>
      <point x="768" y="96" type="line"/>
      <point x="700" y="28"/>
      <point x="603" y="-26"/>
      <point x="460" y="-26" type="curve" smooth="yes"/>
      <point x="171" y="-26"/>
      <point x="50" y="159"/>
    </contour>
    <contour>
      <point x="368" y="328" type="curve" smooth="yes"/>
      <point x="368" y="186"/>
      <point x="449" y="128"/>
      <point x="593" y="139" type="curve" smooth="yes"/>
      <point x="650" y="144"/>
      <point x="698" y="174"/>
      <point x="736" y="205" type="curve"/>
      <point x="736" y="322"/>
      <point x="737" y="438"/>
      <point x="737" y="555" type="curve"/>
      <point x="593" y="555"/>
      <point x="368" y="511"/>
    </contour>
  </outline>
</glyph>
<glyph name="ae" format="1">
  <advance width="1853"/>
  <unicode hex="00E6"/>
  <outline>
    <contour>
      <point x="88" y="363" type="curve"/>
      <point x="133" y="616"/>
      <point x="544" y="686"/>
      <point x="737" y="686" type="curve"/>
      <point x="737" y="699"/>
      <point x="737" y="749"/>
      <point x="736" y="760" type="curve" smooth="yes"/>
      <point x="727" y="941"/>
      <point x="633" y="977"/>
      <point x="498" y="977" type="curve" smooth="yes"/>
      <point x="366" y="977"/>
      <point x="242" y="927"/>
      <point x="184" y="895" type="curve"/>
      <point x="130" y="1025" type="line"/>
      <point x="197" y="1080"/>
      <point x="386" y="1146"/>
      <point x="591" y="1146" type="curve" smooth="yes"/>
      <point x="740" y="1146"/>
      <point x="870" y="1115"/>
      <point x="945" y="1015" type="curve"/>
      <point x="1042" y="1099"/>
      <point x="1172" y="1150"/>
      <point x="1327" y="1151" type="curve" smooth="yes"/>
      <point x="1613" y="1154"/>
      <point x="1750" y="987"/>
      <point x="1760" y="734" type="curve" smooth="yes"/>
      <point x="1763" y="651"/>
      <point x="1754" y="589"/>
      <point x="1747" y="537" type="curve"/>
      <point x="1026" y="537" type="line"/>
      <point x="1039" y="253"/>
      <point x="1191" y="147"/>
      <point x="1379" y="147" type="curve" smooth="yes"/>
      <point x="1478" y="147"/>
      <point x="1612" y="172"/>
      <point x="1698" y="213" type="curve"/>
      <point x="1744" y="103" type="line"/>
      <point x="1652" y="25"/>
      <point x="1454" y="-29"/>
      <point x="1278" y="-26" type="curve" smooth="yes"/>
      <point x="1102" y="-24"/>
      <point x="966" y="32"/>
      <point x="875" y="132" type="curve"/>
      <point x="796" y="42"/>
      <point x="655" y="-26"/>
      <point x="460" y="-26" type="curve" smooth="yes"/>
      <point x="171" y="-26"/>
      <point x="50" y="159"/>
    </contour>
    <contour>
      <point x="1026" y="679" type="curve"/>
      <point x="1477" y="679" type="line"/>
      <point x="1486" y="809"/>
      <point x="1496" y="983"/>
      <point x="1344" y="1011" type="curve"/>
      <point x="1307" y="1021"/>
      <point x="1268" y="1019"/>
      <point x="1227" y="1006" type="curve"/>
      <point x="1125" y="978"/>
      <point x="1041" y="875"/>
    </contour>
    <contour>
      <point x="368" y="328" type="curve" smooth="yes"/>
      <point x="368" y="186"/>
      <point x="449" y="128"/>
      <point x="593" y="139" type="curve" smooth="yes"/>
      <point x="650" y="143"/>
      <point x="706" y="169"/>
      <point x="736" y="193" type="curve"/>
      <point x="736" y="314"/>
      <point x="737" y="434"/>
      <point x="737" y="555" type="curve"/>
      <point x="593" y="555"/>
      <point x="368" y="511"/>
    </contour>
  </outline>
</glyph>
<glyph name="igrave" format="1">
  <advance width="720"/>
  <unicode hex="00EC"/>
  <outline>
    <contour>
      <point x="497" y="1338" type="line"/>
      <point x="358" y="1358"/>
      <point x="148" y="1510"/>
      <point x="56" y="1646" type="curve"/>
      <point x="263" y="1821" type="line"/>
      <point x="569" y="1412" type="line"/>
    </contour>
    <contour>
      <point x="93" y="0" type="line"/>
      <point x="93" y="114" type="line"/>
      <point x="243" y="140" type="line"/>
      <point x="243" y="846" type="line"/>
      <point x="111" y="959" type="line"/>
      <point x="111" y="1039" type="line"/>
      <point x="456" y="1149" type="line"/>
      <point x="523" y="1126" type="line"/>
      <point x="523" y="138" type="line"/>
      <point x="673" y="114" type="line"/>
      <point x="673" y="0" type="line"/>
    </contour>
  </outline>
</glyph>
<glyph name="eth" format="1">
  <advance width="1283"/>
  <unicode hex="00F0"/>
  <outline>
    <contour>
      <point x="80" y="502" type="curve" smooth="yes"/>
      <point x="80" y="876"/>
      <point x="346" y="1053"/>
      <point x="627" y="1053" type="curve" smooth="yes"/>
      <point x="747" y="1053"/>
      <point x="861" y="1002"/>
      <point x="925" y="937" type="curve"/>
      <point x="890" y="1112"/>
      <point x="788" y="1265"/>
      <point x="657" y="1377" type="curve"/>
      <point x="490" y="1230" type="line"/>
      <point x="388" y="1312" type="line"/>
      <point x="547" y="1457" type="line"/>
      <point x="472" y="1504"/>
      <point x="392" y="1538"/>
      <point x="312" y="1557" type="curve"/>
      <point x="338" y="1688" type="line"/>
      <point x="450" y="1663"/>
      <point x="558" y="1622"/>
      <point x="657" y="1565" type="curve"/>
      <point x="726" y="1627"/>
      <point x="832" y="1723"/>
      <point x="832" y="1723" type="curve"/>
      <point x="939" y="1632" type="line"/>
      <point x="939" y="1632"/>
      <point x="846" y="1550"/>
      <point x="775" y="1489" type="curve"/>
      <point x="1021" y="1303"/>
      <point x="1192" y="1011"/>
      <point x="1192" y="638" type="curve" smooth="yes"/>
      <point x="1192" y="238"/>
      <point x="1013" y="-25"/>
      <point x="621" y="-27" type="curve"/>
      <point x="302" y="-30"/>
      <point x="80" y="189"/>
    </contour>
    <contour>
      <point x="375" y="516" type="curve" smooth="yes"/>
      <point x="375" y="291"/>
      <point x="492" y="106"/>
      <point x="647" y="106" type="curve" smooth="yes"/>
      <point x="797" y="106"/>
      <point x="911" y="266"/>
      <point x="911" y="562" type="curve" smooth="yes"/>
      <point x="911" y="587"/>
      <point x="912" y="632"/>
      <point x="903" y="673" type="curve" smooth="yes"/>
      <point x="884" y="764"/>
      <point x="793" y="916"/>
      <point x="636" y="916" type="curve" smooth="yes"/>
      <point x="444" y="916"/>
      <point x="375" y="770"/>
    </contour>
  </outline>
</glyph>
<glyph name="oslash" format="1">
  <advance width="1290"/>
  <unicode hex="00F8"/>
  <outline>
    <contour>
      <point x="352" y="-171" type="line"/>
      <point x="411" y="11" type="line"/>
      <point x="177" y="96"/>
      <point x="83" y="319"/>
      <point x="86" y="570" type="curve" smooth="yes"/>
      <point x="91" y="958"/>
      <point x="364" y="1148"/>
      <point x="663" y="1152" type="curve" smooth="yes"/>
      <point x="706" y="1152"/>
      <point x="746" y="1149"/>
      <point x="785" y="1143" type="curve"/>
      <point x="838" y="1308" type="line"/>
      <point x="936" y="1279" type="line"/>
      <point x="884" y="1118" type="line"/>
      <point x="1092" y="1043"/>
      <point x="1206" y="851"/>
      <point x="1205" y="583" type="curve" smooth="yes"/>
      <point x="1203" y="191"/>
      <point x="940" y="-23"/>
      <point x="636" y="-24" type="curve" smooth="yes"/>
      <point x="592" y="-24"/>
      <point x="551" y="-21"/>
      <point x="512" y="-14" type="curve"/>
      <point x="453" y="-200" type="line"/>
    </contour>
    <contour>
      <point x="479" y="205" type="curve"/>
      <point x="736" y="1006" type="line"/>
      <point x="712" y="1017"/>
      <point x="684" y="1023"/>
      <point x="653" y="1024" type="curve" smooth="yes"/>
      <point x="449" y="1026"/>
      <point x="388" y="825"/>
      <point x="388" y="590" type="curve" smooth="yes"/>
      <point x="388" y="459"/>
      <point x="413" y="303"/>
    </contour>
    <contour>
      <point x="564" y="126" type="line"/>
      <point x="588" y="114"/>
      <point x="616" y="107"/>
      <point x="646" y="107" type="curve" smooth="yes"/>
      <point x="850" y="105"/>
      <point x="903" y="317"/>
      <point x="903" y="570" type="curve" smooth="yes"/>
      <point x="903" y="707"/>
      <point x="882" y="845"/>
      <point x="821" y="933" type="curve"/>
    </contour>
  </outline>
</glyph>
<glyph name="thorn" format="1">
  <advance width="1312"/>
  <unicode hex="00FE"/>
  <outline>
    <contour>
      <point x="184" y="56" type="curve" smooth="yes"/>
      <point x="184" y="1420" type="line"/>
      <point x="39" y="1467" type="line"/>
      <point x="39" y="1584" type="line"/>
      <point x="418" y="1627" type="line"/>
      <point x="468" y="1610" type="line"/>
      <point x="468" y="1064" type="line"/>
      <point x="534" y="1111"/>
      <point x="630" y="1152"/>
      <point x="758" y="1152" type="curve" smooth="yes"/>
      <point x="995" y="1152"/>
      <point x="1227" y="1004"/>
      <point x="1227" y="605" type="curve" smooth="yes"/>
      <point x="1227" y="272"/>
      <point x="987" y="-28"/>
      <point x="624" y="-28" type="curve" smooth="yes"/>
      <point x="567" y="-28"/>
      <point x="510" y="-24"/>
      <point x="457" y="-17" type="curve"/>
      <point x="468" y="-103" type="line"/>
      <point x="468" y="-370" type="line"/>
      <point x="674" y="-395" type="line"/>
      <point x="674" y="-511" type="line"/>
      <point x="36" y="-511" type="line"/>
      <point x="36" y="-395" type="line"/>
      <point x="185" y="-368" type="line"/>
      <point x="185" y="-227"/>
      <point x="184" y="-86"/>
    </contour>
    <contour>
      <point x="468" y="182" type="line"/>
      <point x="487" y="139"/>
      <point x="551" y="100"/>
      <point x="654" y="100" type="curve" smooth="yes"/>
      <point x="794" y="100"/>
      <point x="933" y="215"/>
      <point x="942" y="568" type="curve" smooth="yes"/>
      <point x="949" y="868"/>
      <point x="789" y="992"/>
      <point x="646" y="992" type="curve" smooth="yes"/>
      <point x="563" y="992"/>
      <point x="504" y="968"/>
      <point x="468" y="949" type="curve"/>
    </contour>
  </outline>
</glyph>
<glyph name="ydieresis" format="1">
  <advance width="1197"/>
  <unicode hex="00FF"/>
  <outline>
    <contour>
      <point x="880" y="1363" type="curve" smooth="yes"/>
      <point x="799" y="1363"/>
      <point x="724" y="1410"/>
      <point x="724" y="1495" type="curve" smooth="yes"/>
      <point x="724" y="1583"/>
      <point x="817" y="1648"/>
      <point x="905" y="1648" type="curve" smooth="yes"/>
      <point x="1017" y="1648"/>
      <point x="1061" y="1591"/>
      <point x="1061" y="1517" type="curve" smooth="yes"/>
      <point x="1061" y="1422"/>
      <point x="973" y="1363"/>
    </contour>
    <contour>
      <point x="379" y="1363" type="curve" smooth="yes"/>
      <point x="297" y="1363"/>
      <point x="225" y="1409"/>
      <point x="225" y="1493" type="curve" smooth="yes"/>
      <point x="225" y="1583"/>
      <point x="316" y="1648"/>
      <point x="405" y="1648" type="curve" smooth="yes"/>
      <point x="517" y="1648"/>
      <point x="564" y="1590"/>
      <point x="564" y="1516" type="curve" smooth="yes"/>
      <point x="564" y="1422"/>
      <point x="474" y="1363"/>
    </contour>
    <contour>
      <point x="148" y="-295" type="line"/>
      <point x="177" y="-302"/>
      <point x="219" y="-310"/>
      <point x="267" y="-309" type="curve" smooth="yes"/>
      <point x="344" y="-308"/>
      <point x="474" y="-270"/>
      <point x="544" y="0" type="curve"/>
      <point x="495" y="0" type="line"/>
      <point x="98" y="949" type="line"/>
      <point x="4" y="972" type="line"/>
      <point x="4" y="1119" type="line"/>
      <point x="536" y="1119" type="line"/>
      <point x="536" y="972" type="line"/>
      <point x="409" y="947" type="line"/>
      <point x="622" y="355" type="line"/>
      <point x="659" y="203" type="line"/>
      <point x="702" y="355" type="line"/>
      <point x="882" y="951" type="line"/>
      <point x="737" y="972" type="line"/>
      <point x="737" y="1119" type="line"/>
      <point x="1212" y="1119" type="line"/>
      <point x="1212" y="972" type="line"/>
      <point x="1107" y="953" type="line"/>
      <point x="822" y="189"/>
      <point x="759" y="31"/>
      <point x="728" y="-48" type="curve"/>
      <point x="617" y="-341"/>
      <point x="509" y="-509"/>
      <point x="311" y="-526" type="curve" smooth="yes"/>
      <point x="283" y="-529"/>
      <point x="252" y="-530"/>
      <point x="221" y="-529" type="curve"/>
      <point x="192" y="-527"/>
      <point x="159" y="-523"/>
      <point x="147" y="-515" type="curve"/>
    </contour>
  </outline>
</glyph>
<glyph name="aogonek" format="1">
  <advance width="1191"/>
  <unicode hex="0105"/>
  <outline>
    <contour>
      <point x="88" y="363" type="curve"/>
      <point x="133" y="616"/>
      <point x="544" y="686"/>
      <point x="737" y="686" type="curve"/>
      <point x="737" y="724" type="line" smooth="yes"/>
      <point x="737" y="936"/>
      <point x="642" y="980"/>
      <point x="498" y="980" type="curve" smooth="yes"/>
      <point x="366" y="980"/>
      <point x="242" y="930"/>
      <point x="184" y="898" type="curve"/>
      <point x="130" y="1025" type="line"/>
      <point x="197" y="1080"/>
      <point x="386" y="1146"/>
      <point x="591" y="1146" type="curve" smooth="yes"/>
      <point x="835" y="1146"/>
      <point x="1022" y="1065"/>
      <point x="1022" y="754" type="curve" smooth="yes"/>
      <point x="1021" y="114" type="line"/>
      <point x="1150" y="114" type="line"/>
      <point x="1150" y="25" type="line"/>
      <point x="1149" y="24"/>
      <point x="1149" y="24"/>
      <point x="1148" y="24" type="curve" smooth="yes"/>
      <point x="1154" y="25" type="line"/>
      <point x="1025" y="-49"/>
      <point x="895" y="-151"/>
      <point x="902" y="-256" type="curve"/>
      <point x="907" y="-366"/>
      <point x="1036" y="-361"/>
      <point x="1154" y="-327" type="curve"/>
      <point x="1154" y="-449" type="line"/>
      <point x="1009" y="-556"/>
      <point x="675" y="-552"/>
      <point x="665" y="-335" type="curve"/>
      <point x="657" y="-197"/>
      <point x="783" y="-82"/>
      <point x="886" y="-24" type="curve"/>
      <point x="834" y="-17"/>
      <point x="768" y="6"/>
      <point x="768" y="87" type="curve" smooth="yes"/>
      <point x="768" y="96" type="line"/>
      <point x="700" y="28"/>
      <point x="603" y="-26"/>
      <point x="460" y="-26" type="curve" smooth="yes"/>
      <point x="171" y="-26"/>
      <point x="50" y="159"/>
    </contour>
    <contour>
      <point x="368" y="328" type="curve" smooth="yes"/>
      <point x="368" y="186"/>
      <point x="449" y="128"/>
      <point x="593" y="139" type="curve" smooth="yes"/>
      <point x="650" y="144"/>
      <point x="698" y="174"/>
      <point x="736" y="205" type="curve"/>
      <point x="736" y="322"/>
      <point x="737" y="438"/>
      <point x="737" y="555" type="curve"/>
      <point x="593" y="555"/>
      <point x="368" y="511"/>
    </contour>
  </outline>
</glyph>
<glyph name="Eogonek" format="1">
  <advance width="1380"/>
  <unicode hex="0118"/>
  <outline>
    <contour>
      <point x="101" y="0" type="line"/>
      <point x="101" y="116" type="line"/>
      <point x="258" y="152" type="line"/>
      <point x="258" y="1397" type="line"/>
      <point x="106" y="1418" type="line"/>
      <point x="106" y="1553" type="line"/>
      <point x="1199" y="1553" type="line"/>
      <point x="1229" y="1235" type="line"/>
      <point x="1065" y="1235" type="line"/>
      <point x="992" y="1399" type="line"/>
      <point x="543" y="1416" type="line"/>
      <point x="543" y="870" type="line"/>
      <point x="849" y="878" type="line"/>
      <point x="893" y="1031" type="line"/>
      <point x="1040" y="1031" type="line"/>
      <point x="1040" y="568" type="line"/>
      <point x="893" y="568" type="line"/>
      <point x="849" y="724" type="line"/>
      <point x="543" y="730" type="line"/>
      <point x="543" y="137" type="line"/>
      <point x="1049" y="162" type="line"/>
      <point x="1165" y="363" type="line"/>
      <point x="1325" y="332" type="line"/>
      <point x="1274" y="0" type="line"/>
      <point x="1252" y="0" type="line"/>
      <point x="1115" y="-49"/>
      <point x="979" y="-163"/>
      <point x="969" y="-232" type="curve"/>
      <point x="951" y="-324"/>
      <point x="999" y="-339"/>
      <point x="1060" y="-342" type="curve" smooth="yes"/>
      <point x="1141" y="-346"/>
      <point x="1234" y="-302"/>
      <point x="1289" y="-280" type="curve"/>
      <point x="1318" y="-394" type="line"/>
      <point x="1221" y="-465"/>
      <point x="1092" y="-524"/>
      <point x="911" y="-519" type="curve"/>
      <point x="760" y="-516"/>
      <point x="707" y="-426"/>
      <point x="704" y="-345" type="curve" smooth="yes"/>
      <point x="701" y="-238"/>
      <point x="845" y="-77"/>
      <point x="1042" y="0" type="curve"/>
    </contour>
  </outline>
</glyph>
<glyph name="Itilde" format="1">
  <advance width="811"/>
  <unicode hex="0128"/>
  <outline>
    <contour>
      <point x="61" y="1653" type="curve"/>
      <point x="-11" y="1728" type="line"/>
      <point x="35" y="1836"/>
      <point x="186" y="1920"/>
      <point x="283" y="1920" type="curve" smooth="yes"/>
      <point x="423" y="1920"/>
      <point x="472" y="1809"/>
      <point x="562" y="1809" type="curve" smooth="yes"/>
      <point x="636" y="1809"/>
      <point x="693" y="1844"/>
      <point x="736" y="1884" type="curve"/>
      <point x="809" y="1797" type="line"/>
      <point x="762" y="1690"/>
      <point x="617" y="1615"/>
      <point x="519" y="1615" type="curve" smooth="yes"/>
      <point x="380" y="1615"/>
      <point x="327" y="1730"/>
      <point x="236" y="1730" type="curve" smooth="yes"/>
      <point x="172" y="1730"/>
      <point x="105" y="1692"/>
    </contour>
    <contour>
      <point x="77" y="0" type="line"/>
      <point x="77" y="116" type="line"/>
      <point x="261" y="153" type="line"/>
      <point x="261" y="1397" type="line"/>
      <point x="78" y="1418" type="line"/>
      <point x="78" y="1553" type="line"/>
      <point x="726" y="1553" type="line"/>
      <point x="726" y="1418" type="line"/>
      <point x="550" y="1396" type="line"/>
      <point x="550" y="154" type="line"/>
      <point x="736" y="116" type="line"/>
      <point x="736" y="0" type="line"/>
    </contour>
  </outline>
</glyph>
<glyph name="itilde" format="1">
  <advance width="720"/>
  <unicode hex="0129"/>
  <outline>
    <contour>
      <point x="31" y="1390" type="curve"/>
      <point x="-41" y="1477" type="line"/>
      <point x="5" y="1584"/>
      <point x="156" y="1671"/>
      <point x="253" y="1671" type="curve" smooth="yes"/>
      <point x="393" y="1671"/>
      <point x="442" y="1555"/>
      <point x="532" y="1555" type="curve" smooth="yes"/>
      <point x="606" y="1555"/>
      <point x="663" y="1599"/>
      <point x="706" y="1637" type="curve"/>
      <point x="779" y="1550" type="line"/>
      <point x="732" y="1443"/>
      <point x="587" y="1354"/>
      <point x="489" y="1354" type="curve" smooth="yes"/>
      <point x="350" y="1354"/>
      <point x="297" y="1472"/>
      <point x="206" y="1472" type="curve" smooth="yes"/>
      <point x="139" y="1472"/>
      <point x="75" y="1427"/>
    </contour>
    <contour>
      <point x="93" y="0" type="line"/>
      <point x="93" y="114" type="line"/>
      <point x="243" y="140" type="line"/>
      <point x="243" y="846" type="line"/>
      <point x="111" y="959" type="line"/>
      <point x="111" y="1039" type="line"/>
      <point x="456" y="1149" type="line"/>
      <point x="523" y="1126" type="line"/>
      <point x="523" y="138" type="line"/>
      <point x="673" y="114" type="line"/>
      <point x="673" y="0" type="line"/>
    </contour>
  </outline>
</glyph>
<glyph name="dotlessi" format="1">
  <advance width="720"/>
  <unicode hex="0131"/>
  <outline>
    <contour>
      <point x="93" y="0" type="line"/>
      <point x="93" y="114" type="line"/>
      <point x="243" y="140" type="line"/>
      <point x="243" y="846" type="line"/>
      <point x="111" y="959" type="line"/>
      <point x="111" y="1039" type="line"/>
      <point x="456" y="1149" type="line"/>
      <point x="523" y="1126" type="line"/>
      <point x="523" y="138" type="line"/>
      <point x="673" y="114" type="line"/>
      <point x="673" y="0" type="line"/>
    </contour>
  </outline>
</glyph>
<glyph name="IJ" format="1">
  <advance width="1569"/>
  <unicode hex="0132"/>
  <outline>
    <contour>
      <point x="710" y="-305" type="line"/>
      <point x="849" y="-256"/>
      <point x="964" y="-180"/>
      <point x="1017" y="-52" type="curve"/>
      <point x="1059" y="65"/>
      <point x="1066" y="200"/>
      <point x="1066" y="404" type="curve" smooth="yes"/>
      <point x="1066" y="1398" type="line"/>
      <point x="910" y="1418" type="line"/>
      <point x="910" y="1553" type="line"/>
      <point x="1506" y="1553" type="line"/>
      <point x="1506" y="1418" type="line"/>
      <point x="1355" y="1397" type="line"/>
      <point x="1355" y="541" type="line" smooth="yes"/>
      <point x="1355" y="325"/>
      <point x="1347" y="112"/>
      <point x="1313" y="-2" type="curve"/>
      <point x="1231" y="-251"/>
      <point x="966" y="-377"/>
      <point x="773" y="-393" type="curve"/>
    </contour>
    <contour>
      <point x="77" y="0" type="line"/>
      <point x="77" y="116" type="line"/>
      <point x="261" y="153" type="line"/>
      <point x="261" y="1397" type="line"/>
      <point x="78" y="1418" type="line"/>
      <point x="78" y="1553" type="line"/>
      <point x="726" y="1553" type="line"/>
      <point x="726" y="1418" type="line"/>
      <point x="550" y="1396" type="line"/>
      <point x="550" y="154" type="line"/>
      <point x="736" y="116" type="line"/>
      <point x="736" y="0" type="line"/>
    </contour>
  </outline>
</glyph>
<glyph name="Jcircumflex" format="1">
  <advance width="757"/>
  <unicode hex="0134"/>
  <outline>
    <contour>
      <point x="121" y="1605" type="line"/>
      <point x="25" y="1667" type="line"/>
      <point x="290" y="1920" type="line"/>
      <point x="504" y="1920" type="line"/>
      <point x="768" y="1668" type="line"/>
      <point x="667" y="1605" type="line"/>
      <point x="398" y="1751" type="line"/>
    </contour>
    <contour>
      <point x="203" y="-52" type="curve"/>
      <point x="245" y="65"/>
      <point x="252" y="200"/>
      <point x="252" y="404" type="curve" smooth="yes"/>
      <point x="252" y="1398" type="line"/>
      <point x="96" y="1418" type="line"/>
      <point x="96" y="1553" type="line"/>
      <point x="692" y="1553" type="line"/>
      <point x="692" y="1418" type="line"/>
      <point x="541" y="1397" type="line"/>
      <point x="541" y="541" type="line" smooth="yes"/>
      <point x="541" y="325"/>
      <point x="533" y="112"/>
      <point x="499" y="-2" type="curve"/>
      <point x="417" y="-251"/>
      <point x="152" y="-377"/>
      <point x="-41" y="-393" type="curve"/>
      <point x="-104" y="-305" type="line"/>
      <point x="35" y="-256"/>
      <point x="150" y="-180"/>
    </contour>
  </outline>
</glyph>
<glyph name="jcircumflex" format="1">
  <advance width="669"/>
  <unicode hex="0135"/>
  <outline>
    <contour>
      <point x="87" y="1368" type="line"/>
      <point x="-19" y="1430" type="line"/>
      <point x="252" y="1808" type="line"/>
      <point x="478" y="1808" type="line"/>
      <point x="748" y="1431" type="line"/>
      <point x="629" y="1369" type="line"/>
      <point x="365" y="1602" type="line"/>
    </contour>
    <contour>
      <point x="228" y="-2" type="curve" smooth="yes"/>
      <point x="228" y="846" type="line"/>
      <point x="105" y="962" type="line"/>
      <point x="105" y="1037" type="line"/>
      <point x="444" y="1146" type="line"/>
      <point x="510" y="1122" type="line"/>
      <point x="510" y="-16" type="line" smooth="yes"/>
      <point x="510" y="-328"/>
      <point x="358" y="-515"/>
      <point x="129" y="-515" type="curve" smooth="yes"/>
      <point x="101" y="-515"/>
      <point x="-16" y="-509"/>
      <point x="-27" y="-500" type="curve"/>
      <point x="-27" y="-312" type="line"/>
      <point x="-4" y="-319"/>
      <point x="74" y="-323"/>
      <point x="98" y="-323" type="curve" smooth="yes"/>
      <point x="204" y="-323"/>
      <point x="228" y="-237"/>
    </contour>
  </outline>
</glyph>
<glyph name="Nacute" format="1">
  <advance width="1676"/>
  <unicode hex="0143"/>
  <outline>
    <contour>
      <point x="817" y="1599" type="curve"/>
      <point x="737" y="1683" type="line"/>
      <point x="1093" y="1920" type="line"/>
      <point x="1265" y="1747" type="line"/>
      <point x="1147" y="1664"/>
      <point x="897" y="1607"/>
    </contour>
    <contour>
      <point x="81" y="0" type="line"/>
      <point x="81" y="116" type="line"/>
      <point x="244" y="155" type="line"/>
      <point x="244" y="1381" type="line"/>
      <point x="87" y="1401" type="line"/>
      <point x="87" y="1553" type="line"/>
      <point x="530" y="1553" type="line"/>
      <point x="1161" y="485" type="line"/>
      <point x="1272" y="226" type="line"/>
      <point x="1272" y="1379" type="line"/>
      <point x="1099" y="1403" type="line"/>
      <point x="1099" y="1553" type="line"/>
      <point x="1612" y="1553" type="line"/>
      <point x="1612" y="1403" type="line"/>
      <point x="1463" y="1382" type="line"/>
      <point x="1463" y="0" type="line"/>
      <point x="1152" y="0" type="line"/>
      <point x="557" y="970" type="line"/>
      <point x="436" y="1249" type="line"/>
      <point x="436" y="887"/>
      <point x="437" y="516"/>
      <point x="437" y="157" type="curve"/>
      <point x="636" y="116" type="line"/>
      <point x="636" y="0" type="line"/>
    </contour>
  </outline>
</glyph>
<glyph name="OE" format="1">
  <advance width="2156"/>
  <unicode hex="0152"/>
  <outline>
    <contour>
      <point x="75" y="753" type="curve" smooth="yes"/>
      <point x="86" y="1260"/>
      <point x="427" y="1562"/>
      <point x="811" y="1567" type="curve" smooth="yes"/>
      <point x="865" y="1567"/>
      <point x="917" y="1563"/>
      <point x="966" y="1553" type="curve"/>
      <point x="1972" y="1553" type="line"/>
      <point x="2002" y="1235" type="line"/>
      <point x="1855" y="1235" type="line"/>
      <point x="1782" y="1399" type="line"/>
      <point x="1344" y="1416" type="line"/>
      <point x="1344" y="866" type="line"/>
      <point x="1651" y="875" type="line"/>
      <point x="1689" y="1025" type="line"/>
      <point x="1824" y="1025" type="line"/>
      <point x="1824" y="562" type="line"/>
      <point x="1689" y="562" type="line"/>
      <point x="1651" y="719" type="line"/>
      <point x="1344" y="725" type="line"/>
      <point x="1344" y="137" type="line"/>
      <point x="1845" y="162" type="line"/>
      <point x="1961" y="363" type="line"/>
      <point x="2103" y="332" type="line"/>
      <point x="2053" y="0" type="line"/>
      <point x="980" y="0" type="line"/>
      <point x="919" y="-17"/>
      <point x="853" y="-27"/>
      <point x="786" y="-28" type="curve" smooth="yes"/>
      <point x="346" y="-32"/>
      <point x="66" y="307"/>
    </contour>
    <contour>
      <point x="800" y="108" type="curve" smooth="yes"/>
      <point x="911" y="108"/>
      <point x="996" y="147"/>
      <point x="1058" y="222" type="curve"/>
      <point x="1058" y="1281" type="line"/>
      <point x="995" y="1370"/>
      <point x="909" y="1428"/>
      <point x="798" y="1428" type="curve" smooth="yes"/>
      <point x="521" y="1428"/>
      <point x="391" y="1184"/>
      <point x="391" y="754" type="curve" smooth="yes"/>
      <point x="391" y="470"/>
      <point x="521" y="108"/>
    </contour>
  </outline>
</glyph>
<glyph name="Ydieresis" format="1">
  <advance width="1419"/>
  <unicode hex="0178"/>
  <outline>
    <contour>
      <point x="983" y="1633" type="curve" smooth="yes"/>
      <point x="902" y="1633"/>
      <point x="826" y="1681"/>
      <point x="826" y="1766" type="curve" smooth="yes"/>
      <point x="826" y="1854"/>
      <point x="920" y="1920"/>
      <point x="1008" y="1920" type="curve" smooth="yes"/>
      <point x="1119" y="1920"/>
      <point x="1163" y="1862"/>
      <point x="1163" y="1788" type="curve" smooth="yes"/>
      <point x="1163" y="1693"/>
      <point x="1076" y="1633"/>
    </contour>
    <contour>
      <point x="470" y="1632" type="curve" smooth="yes"/>
      <point x="388" y="1632"/>
      <point x="315" y="1680"/>
      <point x="315" y="1764" type="curve" smooth="yes"/>
      <point x="315" y="1854"/>
      <point x="407" y="1920"/>
      <point x="496" y="1920" type="curve" smooth="yes"/>
      <point x="608" y="1920"/>
      <point x="655" y="1861"/>
      <point x="655" y="1787" type="curve" smooth="yes"/>
      <point x="655" y="1693"/>
      <point x="565" y="1632"/>
    </contour>
    <contour>
      <point x="369" y="0" type="line"/>
      <point x="369" y="116" type="line"/>
      <point x="594" y="156" type="line"/>
      <point x="594" y="564" type="line"/>
      <point x="122" y="1399" type="line"/>
      <point x="10" y="1418" type="line"/>
      <point x="10" y="1553" type="line"/>
      <point x="580" y="1553" type="line"/>
      <point x="580" y="1419" type="line"/>
      <point x="455" y="1399" type="line"/>
      <point x="734" y="843" type="line"/>
      <point x="770" y="741" type="line"/>
      <point x="809" y="849" type="line"/>
      <point x="1053" y="1395" type="line"/>
      <point x="891" y="1418" type="line"/>
      <point x="891" y="1463"/>
      <point x="890" y="1508"/>
      <point x="890" y="1553" type="curve"/>
      <point x="1409" y="1553" type="line"/>
      <point x="1409" y="1418" type="line"/>
      <point x="1277" y="1384" type="line"/>
      <point x="880" y="584" type="line"/>
      <point x="880" y="157" type="line"/>
      <point x="1125" y="116" type="line"/>
      <point x="1125" y="0" type="line"/>
    </contour>
  </outline>
</glyph>
<glyph name="Zacute" format="1">
  <advance width="1367"/>
  <unicode hex="0179"/>
  <outline>
    <contour>
      <point x="684" y="1599" type="curve"/>
      <point x="604" y="1683" type="line"/>
      <point x="959" y="1920" type="line"/>
      <point x="1132" y="1747" type="line"/>
      <point x="1014" y="1664"/>
      <point x="764" y="1607"/>
    </contour>
    <contour>
      <point x="101" y="0" type="line"/>
      <point x="67" y="117" type="line"/>
      <point x="861" y="1260" type="line"/>
      <point x="1000" y="1415" type="line"/>
      <point x="366" y="1379" type="line"/>
      <point x="253" y="1141" type="line"/>
      <point x="120" y="1166" type="line"/>
      <point x="158" y="1553" type="line"/>
      <point x="1274" y="1553" type="line"/>
      <point x="1313" y="1429" type="line"/>
      <point x="527" y="288" type="line"/>
      <point x="402" y="141" type="line"/>
      <point x="1043" y="184" type="line"/>
      <point x="1212" y="445" type="line"/>
      <point x="1339" y="412" type="line"/>
      <point x="1246" y="0" type="line"/>
    </contour>
  </outline>
</glyph>
<glyph name="Zcaron" format="1">
  <advance width="1367"/>
  <unicode hex="017D"/>
  <outline>
    <contour>
      <point x="610" y="1605" type="line"/>
      <point x="349" y="1857" type="line"/>
      <point x="450" y="1920" type="line"/>
      <point x="716" y="1775" type="line"/>
      <point x="989" y="1920" type="line"/>
      <point x="1086" y="1859" type="line"/>
      <point x="824" y="1605" type="line"/>
    </contour>
    <contour>
      <point x="101" y="0" type="line"/>
      <point x="67" y="117" type="line"/>
      <point x="861" y="1260" type="line"/>
      <point x="1000" y="1415" type="line"/>
      <point x="366" y="1379" type="line"/>
      <point x="253" y="1141" type="line"/>
      <point x="120" y="1166" type="line"/>
      <point x="158" y="1553" type="line"/>
      <point x="1274" y="1553" type="line"/>
      <point x="1313" y="1429" type="line"/>
      <point x="527" y="288" type="line"/>
      <point x="402" y="141" type="line"/>
      <point x="1043" y="184" type="line"/>
      <point x="1212" y="445" type="line"/>
      <point x="1339" y="412" type="line"/>
      <point x="1246" y="0" type="line"/>
    </contour>
  </outline>
</glyph>
<glyph name="florin" format="1">
  <advance width="1019"/>
  <unicode hex="0192"/>
  <outline>
    <contour>
      <point x="235" y="-355" type="line"/>
      <point x="335" y="944" type="line"/>
      <point x="136" y="944" type="line"/>
      <point x="143" y="1036" type="line"/>
      <point x="348" y="1107" type="line"/>
      <point x="355" y="1202" type="line" smooth="yes"/>
      <point x="375" y="1464"/>
      <point x="601" y="1714"/>
      <point x="843" y="1714" type="curve" smooth="yes"/>
      <point x="918" y="1714"/>
      <point x="982" y="1704"/>
      <point x="1013" y="1689" type="curve"/>
      <point x="996" y="1468" type="line"/>
      <point x="978" y="1477"/>
      <point x="892" y="1513"/>
      <point x="805" y="1513" type="curve" smooth="yes"/>
      <point x="708" y="1513"/>
      <point x="649" y="1496"/>
      <point x="633" y="1298" type="curve"/>
      <point x="620" y="1119" type="line"/>
      <point x="900" y="1119" type="line"/>
      <point x="895" y="944" type="line"/>
      <point x="606" y="944" type="line"/>
      <point x="506" y="-355" type="line"/>
    </contour>
  </outline>
</glyph>
<glyph name="circumflex" format="1">
  <advance width="1063"/>
  <unicode hex="02C6"/>
  <outline>
    <contour>
      <point x="252" y="1335" type="line"/>
      <point x="145" y="1397" type="line"/>
      <point x="417" y="1775" type="line"/>
      <point x="642" y="1775" type="line"/>
      <point x="913" y="1398" type="line"/>
      <point x="794" y="1336" type="line"/>
      <point x="529" y="1568" type="line"/>
    </contour>
  </outline>
</glyph>
<glyph name="caron" format="1">
  <advance width="1062"/>
  <unicode hex="02C7"/>
  <outline>
    <contour>
      <point x="419" y="1335" type="line"/>
      <point x="148" y="1713" type="line"/>
      <point x="259" y="1775" type="line"/>
      <point x="532" y="1542" type="line"/>
      <point x="801" y="1774" type="line"/>
      <point x="915" y="1713" type="line"/>
      <point x="644" y="1335" type="line"/>
    </contour>
  </outline>
</glyph>
<glyph name="breve" format="1">
  <advance width="1274"/>
  <unicode hex="02D8"/>
  <outline>
    <contour>
      <point x="637" y="1359" type="curve" smooth="yes"/>
      <point x="407" y="1359"/>
      <point x="280" y="1532"/>
      <point x="280" y="1695" type="curve"/>
      <point x="441" y="1695" type="line"/>
      <point x="452" y="1666"/>
      <point x="482" y="1535"/>
      <point x="638" y="1535" type="curve" smooth="yes"/>
      <point x="791" y="1535"/>
      <point x="824" y="1666"/>
      <point x="837" y="1696" type="curve"/>
      <point x="994" y="1696" type="line"/>
      <point x="994" y="1533"/>
      <point x="856" y="1359"/>
    </contour>
  </outline>
</glyph>
<glyph name="dotaccent" format="1">
  <advance width="651"/>
  <unicode hex="02D9"/>
  <outline>
    <contour>
      <point x="309" y="1342" type="curve" smooth="yes"/>
      <point x="227" y="1342"/>
      <point x="154" y="1390"/>
      <point x="154" y="1473" type="curve" smooth="yes"/>
      <point x="154" y="1564"/>
      <point x="246" y="1630"/>
      <point x="335" y="1630" type="curve" smooth="yes"/>
      <point x="447" y="1630"/>
      <point x="494" y="1571"/>
      <point x="494" y="1497" type="curve" smooth="yes"/>
      <point x="494" y="1402"/>
      <point x="404" y="1342"/>
    </contour>
  </outline>
</glyph>
<glyph name="ring" format="1">
  <advance width="609"/>
  <unicode hex="02DA"/>
  <outline>
    <contour>
      <point x="305" y="1300" type="curve" smooth="yes"/>
      <point x="154" y="1300"/>
      <point x="29" y="1417"/>
      <point x="29" y="1560" type="curve" smooth="yes"/>
      <point x="29" y="1704"/>
      <point x="154" y="1821"/>
      <point x="305" y="1821" type="curve" smooth="yes"/>
      <point x="457" y="1821"/>
      <point x="581" y="1701"/>
      <point x="581" y="1560" type="curve" smooth="yes"/>
      <point x="581" y="1417"/>
      <point x="457" y="1300"/>
    </contour>
    <contour>
      <point x="305" y="1427" type="curve" smooth="yes"/>
      <point x="379" y="1427"/>
      <point x="437" y="1484"/>
      <point x="437" y="1560" type="curve" smooth="yes"/>
      <point x="437" y="1632"/>
      <point x="379" y="1693"/>
      <point x="305" y="1693" type="curve" smooth="yes"/>
      <point x="228" y="1693"/>
      <point x="172" y="1634"/>
      <point x="172" y="1560" type="curve" smooth="yes"/>
      <point x="172" y="1484"/>
      <point x="228" y="1427"/>
    </contour>
  </outline>
</glyph>
<glyph name="ogonek" format="1">
  <advance width="743"/>
  <unicode hex="02DB"/>
  <outline>
    <contour>
      <point x="189" y="0" type="curve"/>
      <point x="287" y="9" type="line"/>
      <point x="398" y="0" type="line"/>
      <point x="261" y="-49"/>
      <point x="125" y="-163"/>
      <point x="115" y="-232" type="curve"/>
      <point x="97" y="-324"/>
      <point x="145" y="-339"/>
      <point x="206" y="-342" type="curve" smooth="yes"/>
      <point x="287" y="-346"/>
      <point x="380" y="-302"/>
      <point x="435" y="-280" type="curve"/>
      <point x="464" y="-394" type="line"/>
      <point x="367" y="-465"/>
      <point x="238" y="-524"/>
      <point x="57" y="-519" type="curve"/>
      <point x="-94" y="-516"/>
      <point x="-147" y="-426"/>
      <point x="-150" y="-345" type="curve"/>
      <point x="-152" y="-238"/>
      <point x="-9" y="-77"/>
    </contour>
  </outline>
</glyph>
<glyph name="tilde" format="1">
  <advance width="996"/>
  <unicode hex="02DC"/>
  <outline>
    <contour>
      <point x="160" y="1390" type="curve"/>
      <point x="88" y="1477" type="line"/>
      <point x="134" y="1584"/>
      <point x="285" y="1671"/>
      <point x="382" y="1671" type="curve" smooth="yes"/>
      <point x="522" y="1671"/>
      <point x="571" y="1555"/>
      <point x="661" y="1555" type="curve" smooth="yes"/>
      <point x="735" y="1555"/>
      <point x="792" y="1599"/>
      <point x="835" y="1637" type="curve"/>
      <point x="908" y="1550" type="line"/>
      <point x="861" y="1443"/>
      <point x="716" y="1354"/>
      <point x="618" y="1354" type="curve" smooth="yes"/>
      <point x="479" y="1354"/>
      <point x="426" y="1472"/>
      <point x="335" y="1472" type="curve" smooth="yes"/>
      <point x="268" y="1472"/>
      <point x="204" y="1427"/>
    </contour>
  </outline>
</glyph>
<glyph name="hungarumlaut" format="1">
  <advance width="949"/>
  <unicode hex="02DD"/>
  <outline>
    <contour>
      <point x="712" y="1330" type="curve"/>
      <point x="612" y="1409" type="line"/>
      <point x="914" y="1825" type="line"/>
      <point x="1100" y="1680" type="line"/>
      <point x="1016" y="1571"/>
      <point x="827" y="1383"/>
    </contour>
    <contour>
      <point x="179" y="1330" type="curve"/>
      <point x="75" y="1409" type="line"/>
      <point x="380" y="1825" type="line"/>
      <point x="560" y="1680" type="line"/>
      <point x="480" y="1571"/>
      <point x="293" y="1391"/>
    </contour>
  </outline>
</glyph>
<glyph name="Omega" format="1">
  <advance width="2052"/>
  <unicode hex="03A9"/>
  <unicode hex="2126"/>
  <outline>
    <contour>
      <point x="150" y="0" type="line"/>
      <point x="150" y="459" type="line"/>
      <point x="287" y="466" type="line"/>
      <point x="326" y="243" type="line"/>
      <point x="675" y="243" type="line"/>
      <point x="482" y="351"/>
      <point x="276" y="622"/>
      <point x="281" y="880" type="curve" smooth="yes"/>
      <point x="292" y="1355"/>
      <point x="656" y="1561"/>
      <point x="1026" y="1561" type="curve" smooth="yes"/>
      <point x="1443" y="1561"/>
      <point x="1742" y="1323"/>
      <point x="1732" y="904" type="curve" smooth="yes"/>
      <point x="1726" y="678"/>
      <point x="1527" y="393"/>
      <point x="1351" y="243" type="curve"/>
      <point x="1683" y="243" type="line"/>
      <point x="1771" y="483" type="line"/>
      <point x="1895" y="476" type="line"/>
      <point x="1839" y="0" type="line"/>
      <point x="1155" y="0" type="line"/>
      <point x="1156" y="208" type="line"/>
      <point x="1307" y="313"/>
      <point x="1427" y="618"/>
      <point x="1427" y="932" type="curve" smooth="yes"/>
      <point x="1427" y="1261"/>
      <point x="1257" y="1439"/>
      <point x="1015" y="1439" type="curve" smooth="yes"/>
      <point x="764" y="1439"/>
      <point x="586" y="1286"/>
      <point x="586" y="898" type="curve" smooth="yes"/>
      <point x="586" y="604"/>
      <point x="754" y="321"/>
      <point x="888" y="208" type="curve"/>
      <point x="889" y="0" type="line"/>
      <point x="876" y="21" type="line"/>
      <point x="888" y="0" type="line"/>
    </contour>
  </outline>
</glyph>
<glyph name="emdash" format="1">
  <advance width="2410"/>
  <unicode hex="2014"/>
  <outline>
    <contour>
      <point x="181" y="725" type="line"/>
      <point x="181" y="922" type="line"/>
      <point x="2229" y="922" type="line"/>
      <point x="2229" y="725" type="line"/>
    </contour>
  </outline>
</glyph>
<glyph name="quoteleft" format="1">
  <advance width="858"/>
  <unicode hex="2018"/>
  <outline>
    <contour>
      <point x="441" y="838" type="line"/>
      <point x="257" y="896"/>
      <point x="195" y="1100"/>
      <point x="197" y="1222" type="curve" smooth="yes"/>
      <point x="201" y="1496"/>
      <point x="407" y="1682"/>
      <point x="579" y="1748" type="curve"/>
      <point x="658" y="1669" type="line"/>
      <point x="658" y="1633" type="line"/>
      <point x="570" y="1601"/>
      <point x="470" y="1459"/>
      <point x="470" y="1331" type="curve" smooth="yes"/>
      <point x="470" y="1235"/>
      <point x="542" y="1136"/>
      <point x="621" y="1128" type="curve"/>
      <point x="621" y="1064" type="line"/>
    </contour>
  </outline>
</glyph>
<glyph name="quotesinglbase" format="1">
  <advance width="858"/>
  <unicode hex="201A"/>
  <outline>
    <contour>
      <point x="236" y="80" type="curve"/>
      <point x="236" y="143" type="line"/>
      <point x="416" y="369" type="line"/>
      <point x="601" y="311"/>
      <point x="663" y="108"/>
      <point x="661" y="-15" type="curve" smooth="yes"/>
      <point x="657" y="-288"/>
      <point x="450" y="-457"/>
      <point x="279" y="-523" type="curve"/>
      <point x="200" y="-444" type="line"/>
      <point x="200" y="-409" type="line"/>
      <point x="288" y="-377"/>
      <point x="388" y="-251"/>
      <point x="388" y="-123" type="curve" smooth="yes"/>
      <point x="388" y="-27"/>
      <point x="316" y="72"/>
    </contour>
  </outline>
</glyph>
<glyph name="quotedblleft" format="1">
  <advance width="1435"/>
  <unicode hex="201C"/>
  <outline>
    <contour>
      <point x="1018" y="837" type="line"/>
      <point x="834" y="896"/>
      <point x="769" y="1100"/>
      <point x="773" y="1221" type="curve"/>
      <point x="777" y="1495"/>
      <point x="985" y="1681"/>
      <point x="1154" y="1747" type="curve"/>
      <point x="1235" y="1668" type="line"/>
      <point x="1235" y="1633" type="line"/>
      <point x="1146" y="1601"/>
      <point x="1046" y="1458"/>
      <point x="1046" y="1330" type="curve" smooth="yes"/>
      <point x="1046" y="1234"/>
      <point x="1118" y="1135"/>
      <point x="1198" y="1127" type="curve"/>
      <point x="1198" y="1064" type="line"/>
    </contour>
    <contour>
      <point x="441" y="837" type="line"/>
      <point x="256" y="896"/>
      <point x="194" y="1100"/>
      <point x="197" y="1221" type="curve"/>
      <point x="200" y="1495"/>
      <point x="408" y="1681"/>
      <point x="579" y="1747" type="curve"/>
      <point x="658" y="1668" type="line"/>
      <point x="658" y="1633" type="line"/>
      <point x="569" y="1601"/>
      <point x="470" y="1458"/>
      <point x="470" y="1330" type="curve" smooth="yes"/>
      <point x="470" y="1234"/>
      <point x="542" y="1135"/>
      <point x="621" y="1127" type="curve"/>
      <point x="621" y="1064" type="line"/>
    </contour>
  </outline>
</glyph>
<glyph name="quotedblbase" format="1">
  <advance width="1417"/>
  <unicode hex="201E"/>
  <outline>
    <contour>
      <point x="796" y="83" type="curve"/>
      <point x="796" y="146" type="line"/>
      <point x="976" y="372" type="line"/>
      <point x="1161" y="314"/>
      <point x="1224" y="110"/>
      <point x="1221" y="-12" type="curve"/>
      <point x="1217" y="-285"/>
      <point x="1009" y="-471"/>
      <point x="839" y="-537" type="curve"/>
      <point x="758" y="-458" type="line"/>
      <point x="758" y="-423" type="line"/>
      <point x="849" y="-391"/>
      <point x="947" y="-249"/>
      <point x="947" y="-121" type="curve" smooth="yes"/>
      <point x="947" y="-25"/>
      <point x="875" y="75"/>
    </contour>
    <contour>
      <point x="237" y="83" type="curve"/>
      <point x="237" y="146" type="line"/>
      <point x="418" y="372" type="line"/>
      <point x="602" y="314"/>
      <point x="666" y="110"/>
      <point x="662" y="-12" type="curve"/>
      <point x="658" y="-285"/>
      <point x="451" y="-471"/>
      <point x="281" y="-537" type="curve"/>
      <point x="200" y="-458" type="line"/>
      <point x="200" y="-423" type="line"/>
      <point x="290" y="-391"/>
      <point x="389" y="-249"/>
      <point x="389" y="-121" type="curve" smooth="yes"/>
      <point x="389" y="-25"/>
      <point x="317" y="75"/>
    </contour>
  </outline>
</glyph>
<glyph name="dagger" format="1">
  <advance width="1035"/>
  <unicode hex="2020"/>
  <outline>
    <contour>
      <point x="440" y="272" type="line"/>
      <point x="390" y="918" type="line"/>
      <point x="410" y="1112" type="line"/>
      <point x="112" y="1089" type="line"/>
      <point x="113" y="1305" type="line"/>
      <point x="419" y="1276" type="line"/>
      <point x="387" y="1521" type="line"/>
      <point x="385" y="1648" type="line"/>
      <point x="650" y="1648" type="line"/>
      <point x="648" y="1521" type="line"/>
      <point x="617" y="1276" type="line"/>
      <point x="922" y="1305" type="line"/>
      <point x="923" y="1089" type="line"/>
      <point x="625" y="1112" type="line"/>
      <point x="645" y="918" type="line"/>
      <point x="584" y="272" type="line"/>
    </contour>
  </outline>
</glyph>
<glyph name="daggerdbl" format="1">
  <advance width="1035"/>
  <unicode hex="2021"/>
  <outline>
    <contour>
      <point x="112" y="450" type="line"/>
      <point x="113" y="666" type="line"/>
      <point x="418" y="637" type="line"/>
      <point x="390" y="917" type="line"/>
      <point x="410" y="1112" type="line"/>
      <point x="112" y="1089" type="line"/>
      <point x="113" y="1305" type="line"/>
      <point x="418" y="1276" type="line"/>
      <point x="387" y="1520" type="line"/>
      <point x="385" y="1648" type="line"/>
      <point x="650" y="1648" type="line"/>
      <point x="648" y="1520" type="line"/>
      <point x="617" y="1276" type="line"/>
      <point x="922" y="1305" type="line"/>
      <point x="923" y="1089" type="line"/>
      <point x="625" y="1112" type="line"/>
      <point x="645" y="917" type="line"/>
      <point x="617" y="637" type="line"/>
      <point x="922" y="666" type="line"/>
      <point x="923" y="450" type="line"/>
      <point x="625" y="474" type="line"/>
      <point x="645" y="279" type="line"/>
      <point x="583" y="-367" type="line"/>
      <point x="442" y="-367" type="line"/>
      <point x="390" y="279" type="line"/>
      <point x="410" y="474" type="line"/>
    </contour>
  </outline>
</glyph>
<glyph name="bullet" format="1">
  <advance width="885"/>
  <unicode hex="2022"/>
  <outline>
    <contour>
      <point x="429" y="471" type="curve" smooth="yes"/>
      <point x="277" y="471"/>
      <point x="149" y="603"/>
      <point x="161" y="754" type="curve"/>
      <point x="172" y="911"/>
      <point x="305" y="1034"/>
      <point x="457" y="1034" type="curve" smooth="yes"/>
      <point x="609" y="1034"/>
      <point x="736" y="911"/>
      <point x="725" y="754" type="curve" smooth="yes"/>
      <point x="713" y="597"/>
      <point x="582" y="471"/>
    </contour>
  </outline>
</glyph>
<glyph name="guilsinglright" format="1">
  <advance width="1242"/>
  <unicode hex="203A"/>
  <outline>
    <contour>
      <point x="303" y="122" type="line"/>
      <point x="233" y="236" type="line"/>
      <point x="711" y="621" type="line"/>
      <point x="233" y="991" type="line"/>
      <point x="303" y="1114" type="line"/>
      <point x="1003" y="751" type="line"/>
      <point x="1003" y="506" type="line"/>
    </contour>
  </outline>
</glyph>
<glyph name="fraction" format="1">
  <advance width="989"/>
  <unicode hex="2044"/>
  <outline>
    <contour>
      <point x="12" y="-287" type="line"/>
      <point x="799" y="1881" type="line"/>
      <point x="977" y="1829" type="line"/>
      <point x="188" y="-343" type="line"/>
    </contour>
  </outline>
</glyph>
<glyph name="trademark" format="1">
  <advance width="2285"/>
  <unicode hex="2122"/>
  <outline>
    <contour>
      <point x="987" y="777" type="line"/>
      <point x="987" y="861" type="line"/>
      <point x="1100" y="881" type="line"/>
      <point x="1128" y="1442" type="line"/>
      <point x="1031" y="1453" type="line"/>
      <point x="1031" y="1553" type="line"/>
      <point x="1403" y="1553" type="line"/>
      <point x="1542" y="1168" type="line"/>
      <point x="1572" y="1047" type="line"/>
      <point x="1737" y="1553" type="line"/>
      <point x="2078" y="1553" type="line"/>
      <point x="2078" y="1453" type="line"/>
      <point x="1986" y="1442" type="line"/>
      <point x="2032" y="881" type="line"/>
      <point x="2131" y="861" type="line"/>
      <point x="2131" y="777" type="line"/>
      <point x="1750" y="777" type="line"/>
      <point x="1750" y="861" type="line"/>
      <point x="1830" y="879" type="line"/>
      <point x="1819" y="1235" type="line" smooth="yes"/>
      <point x="1819" y="1245"/>
      <point x="1817" y="1339"/>
      <point x="1817" y="1449" type="curve"/>
      <point x="1800" y="1377" type="line"/>
      <point x="1594" y="769" type="line"/>
      <point x="1501" y="769" type="line"/>
      <point x="1279" y="1321" type="line"/>
      <point x="1235" y="1450" type="line"/>
      <point x="1238" y="1293" type="line"/>
      <point x="1226" y="881" type="line"/>
      <point x="1320" y="861" type="line"/>
      <point x="1320" y="777" type="line"/>
    </contour>
    <contour>
      <point x="336" y="777" type="line"/>
      <point x="336" y="861" type="line"/>
      <point x="454" y="879" type="line"/>
      <point x="454" y="1440" type="line"/>
      <point x="300" y="1420" type="line"/>
      <point x="260" y="1301" type="line"/>
      <point x="177" y="1299" type="line"/>
      <point x="193" y="1553" type="line"/>
      <point x="916" y="1553" type="line"/>
      <point x="922" y="1303" type="line"/>
      <point x="846" y="1296" type="line"/>
      <point x="807" y="1425" type="line"/>
      <point x="665" y="1441" type="line"/>
      <point x="665" y="880" type="line"/>
      <point x="788" y="861" type="line"/>
      <point x="788" y="777" type="line"/>
    </contour>
  </outline>
</glyph>
<glyph name="infinity" format="1">
  <advance width="2088"/>
  <unicode hex="221E"/>
  <outline>
    <contour>
      <point x="137" y="571" type="curve" smooth="yes"/>
      <point x="134" y="806"/>
      <point x="378" y="1065"/>
      <point x="607" y="1065" type="curve" smooth="yes"/>
      <point x="827" y="1065"/>
      <point x="963" y="920"/>
      <point x="1078" y="783" type="curve"/>
      <point x="1194" y="923"/>
      <point x="1343" y="1064"/>
      <point x="1512" y="1065" type="curve" smooth="yes"/>
      <point x="1770" y="1066"/>
      <point x="1948" y="894"/>
      <point x="1951" y="670" type="curve" smooth="yes"/>
      <point x="1955" y="435"/>
      <point x="1710" y="176"/>
      <point x="1482" y="176" type="curve" smooth="yes"/>
      <point x="1261" y="176"/>
      <point x="1125" y="321"/>
      <point x="1010" y="457" type="curve"/>
      <point x="897" y="317"/>
      <point x="753" y="177"/>
      <point x="585" y="176" type="curve" smooth="yes"/>
      <point x="328" y="175"/>
      <point x="140" y="347"/>
    </contour>
    <contour>
      <point x="1168" y="676" type="curve"/>
      <point x="1263" y="557"/>
      <point x="1410" y="374"/>
      <point x="1555" y="374" type="curve" smooth="yes"/>
      <point x="1652" y="374"/>
      <point x="1712" y="483"/>
      <point x="1708" y="610" type="curve" smooth="yes"/>
      <point x="1703" y="750"/>
      <point x="1574" y="874"/>
      <point x="1446" y="874" type="curve" smooth="yes"/>
      <point x="1355" y="874"/>
      <point x="1254" y="790"/>
    </contour>
    <contour>
      <point x="381" y="631" type="curve" smooth="yes"/>
      <point x="385" y="489"/>
      <point x="523" y="362"/>
      <point x="651" y="362" type="curve" smooth="yes"/>
      <point x="742" y="362"/>
      <point x="837" y="448"/>
      <point x="921" y="563" type="curve"/>
      <point x="827" y="680"/>
      <point x="686" y="862"/>
      <point x="542" y="862" type="curve" smooth="yes"/>
      <point x="445" y="862"/>
      <point x="377" y="756"/>
    </contour>
  </outline>
</glyph>
<glyph name="integral" format="1">
  <advance width="1167"/>
  <unicode hex="222B"/>
  <outline>
    <contour>
      <point x="174" y="-201" type="line"/>
      <point x="188" y="-257"/>
      <point x="259" y="-325"/>
      <point x="335" y="-325" type="curve" smooth="yes"/>
      <point x="466" y="-325"/>
      <point x="531" y="-255"/>
      <point x="531" y="-8" type="curve" smooth="yes"/>
      <point x="531" y="395"/>
      <point x="376" y="768"/>
      <point x="376" y="1169" type="curve" smooth="yes"/>
      <point x="376" y="1475"/>
      <point x="569" y="1713"/>
      <point x="847" y="1713" type="curve" smooth="yes"/>
      <point x="927" y="1713"/>
      <point x="1079" y="1694"/>
      <point x="1143" y="1566" type="curve"/>
      <point x="993" y="1448" type="line"/>
      <point x="979" y="1503"/>
      <point x="909" y="1571"/>
      <point x="832" y="1571" type="curve" smooth="yes"/>
      <point x="701" y="1571"/>
      <point x="636" y="1502"/>
      <point x="636" y="1254" type="curve" smooth="yes"/>
      <point x="636" y="851"/>
      <point x="785" y="476"/>
      <point x="785" y="72" type="curve" smooth="yes"/>
      <point x="785" y="-234"/>
      <point x="598" y="-472"/>
      <point x="320" y="-472" type="curve" smooth="yes"/>
      <point x="240" y="-472"/>
      <point x="88" y="-453"/>
      <point x="24" y="-325" type="curve"/>
    </contour>
  </outline>
</glyph>
<glyph name="fi" format="1">
  <advance width="1619"/>
  <unicode hex="FB01"/>
  <outline>
    <contour>
      <point x="88" y="0" type="line"/>
      <point x="88" y="114" type="line"/>
      <point x="267" y="141" type="line"/>
      <point x="267" y="944" type="line"/>
      <point x="68" y="944" type="line"/>
      <point x="68" y="1036" type="line"/>
      <point x="267" y="1107" type="line"/>
      <point x="267" y="1202" type="line" smooth="yes"/>
      <point x="267" y="1464"/>
      <point x="485" y="1714"/>
      <point x="726" y="1714" type="curve" smooth="yes"/>
      <point x="805" y="1714"/>
      <point x="876" y="1704"/>
      <point x="910" y="1689" type="curve"/>
      <point x="910" y="1468" type="line"/>
      <point x="890" y="1477"/>
      <point x="796" y="1513"/>
      <point x="704" y="1513" type="curve" smooth="yes"/>
      <point x="607" y="1513"/>
      <point x="551" y="1496"/>
      <point x="551" y="1298" type="curve" smooth="yes"/>
      <point x="551" y="1119" type="line"/>
      <point x="852" y="1119" type="line"/>
      <point x="852" y="944" type="line"/>
      <point x="551" y="944" type="line"/>
      <point x="551" y="139" type="line"/>
      <point x="787" y="114" type="line"/>
      <point x="787" y="0" type="line"/>
    </contour>
    <contour>
      <point x="1246" y="1347" type="curve" smooth="yes"/>
      <point x="1159" y="1347"/>
      <point x="1075" y="1407"/>
      <point x="1075" y="1506" type="curve" smooth="yes"/>
      <point x="1075" y="1615"/>
      <point x="1181" y="1697"/>
      <point x="1279" y="1697" type="curve" smooth="yes"/>
      <point x="1398" y="1697"/>
      <point x="1450" y="1624"/>
      <point x="1450" y="1536" type="curve" smooth="yes"/>
      <point x="1450" y="1421"/>
      <point x="1349" y="1347"/>
    </contour>
    <contour>
      <point x="992" y="0" type="line"/>
      <point x="992" y="114" type="line"/>
      <point x="1142" y="140" type="line"/>
      <point x="1142" y="846" type="line"/>
      <point x="1010" y="959" type="line"/>
      <point x="1010" y="1039" type="line"/>
      <point x="1354" y="1146" type="line"/>
      <point x="1422" y="1123" type="line"/>
      <point x="1422" y="138" type="line"/>
      <point x="1574" y="114" type="line"/>
      <point x="1574" y="0" type="line"/>
    </contour>
  </outline>
</glyph>
<glyph name="ffl" format="1">
  <advance width="2516"/>
  <unicode hex="FB04"/>
  <outline>
    <contour>
      <point x="987" y="0" type="line"/>
      <point x="987" y="114" type="line"/>
      <point x="1166" y="141" type="line"/>
      <point x="1166" y="944" type="line"/>
      <point x="967" y="944" type="line"/>
      <point x="967" y="1036" type="line"/>
      <point x="1166" y="1107" type="line"/>
      <point x="1166" y="1202" type="line" smooth="yes"/>
      <point x="1166" y="1464"/>
      <point x="1383" y="1714"/>
      <point x="1625" y="1714" type="curve" smooth="yes"/>
      <point x="1703" y="1714"/>
      <point x="1774" y="1704"/>
      <point x="1809" y="1689" type="curve"/>
      <point x="1809" y="1468" type="line"/>
      <point x="1789" y="1477"/>
      <point x="1695" y="1513"/>
      <point x="1602" y="1513" type="curve" smooth="yes"/>
      <point x="1506" y="1513"/>
      <point x="1450" y="1496"/>
      <point x="1450" y="1298" type="curve" smooth="yes"/>
      <point x="1450" y="1119" type="line"/>
      <point x="1751" y="1119" type="line"/>
      <point x="1751" y="944" type="line"/>
      <point x="1450" y="944" type="line"/>
      <point x="1450" y="139" type="line"/>
      <point x="1686" y="114" type="line"/>
      <point x="1686" y="0" type="line"/>
    </contour>
    <contour>
      <point x="88" y="0" type="line"/>
      <point x="88" y="114" type="line"/>
      <point x="267" y="141" type="line"/>
      <point x="267" y="944" type="line"/>
      <point x="68" y="944" type="line"/>
      <point x="68" y="1036" type="line"/>
      <point x="267" y="1107" type="line"/>
      <point x="267" y="1202" type="line" smooth="yes"/>
      <point x="267" y="1464"/>
      <point x="485" y="1714"/>
      <point x="726" y="1714" type="curve" smooth="yes"/>
      <point x="805" y="1714"/>
      <point x="876" y="1704"/>
      <point x="910" y="1689" type="curve"/>
      <point x="910" y="1468" type="line"/>
      <point x="890" y="1477"/>
      <point x="796" y="1513"/>
      <point x="704" y="1513" type="curve" smooth="yes"/>
      <point x="607" y="1513"/>
      <point x="551" y="1496"/>
      <point x="551" y="1298" type="curve" smooth="yes"/>
      <point x="551" y="1119" type="line"/>
      <point x="852" y="1119" type="line"/>
      <point x="852" y="944" type="line"/>
      <point x="551" y="944" type="line"/>
      <point x="551" y="139" type="line"/>
      <point x="787" y="114" type="line"/>
      <point x="787" y="0" type="line"/>
    </contour>
    <contour>
      <point x="1884" y="0" type="line"/>
      <point x="1884" y="114" type="line"/>
      <point x="2025" y="139" type="line"/>
      <point x="2025" y="1417" type="line"/>
      <point x="1879" y="1465" type="line"/>
      <point x="1879" y="1582" type="line"/>
      <point x="2259" y="1628" type="line"/>
      <point x="2309" y="1608" type="line"/>
      <point x="2309" y="140" type="line"/>
      <point x="2485" y="114" type="line"/>
      <point x="2485" y="0" type="line"/>
    </contour>
  </outline>
</glyph>
<glyph name="caron.cap" format="1">
  <advance width="910"/>
  <outline>
    <contour>
      <point x="424" y="1605" type="line"/>
      <point x="163" y="1857" type="line"/>
      <point x="264" y="1920" type="line"/>
      <point x="530" y="1775" type="line"/>
      <point x="804" y="1920" type="line"/>
      <point x="900" y="1859" type="line"/>
      <point x="638" y="1605" type="line"/>
    </contour>
  </outline>
</glyph>
<glyph name="circumflex.cap" format="1">
  <advance width="1062"/>
  <outline>
    <contour>
      <point x="257" y="1605" type="line"/>
      <point x="160" y="1667" type="line"/>
      <point x="426" y="1920" type="line"/>
      <point x="639" y="1920" type="line"/>
      <point x="903" y="1668" type="line"/>
      <point x="802" y="1605" type="line"/>
      <point x="534" y="1751" type="line"/>
    </contour>
  </outline>
</glyph>
<glyph name="dieresis.cap" format="1">
  <advance width="1062"/>
  <outline>
    <contour>
      <point x="774" y="1633" type="curve" smooth="yes"/>
      <point x="693" y="1633"/>
      <point x="617" y="1681"/>
      <point x="617" y="1766" type="curve" smooth="yes"/>
      <point x="617" y="1854"/>
      <point x="711" y="1920"/>
      <point x="799" y="1920" type="curve" smooth="yes"/>
      <point x="911" y="1920"/>
      <point x="955" y="1862"/>
      <point x="955" y="1788" type="curve" smooth="yes"/>
      <point x="955" y="1693"/>
      <point x="867" y="1633"/>
    </contour>
    <contour>
      <point x="262" y="1632" type="curve" smooth="yes"/>
      <point x="179" y="1632"/>
      <point x="107" y="1680"/>
      <point x="107" y="1764" type="curve" smooth="yes"/>
      <point x="107" y="1854"/>
      <point x="198" y="1920"/>
      <point x="287" y="1920" type="curve" smooth="yes"/>
      <point x="399" y="1920"/>
      <point x="447" y="1861"/>
      <point x="447" y="1787" type="curve" smooth="yes"/>
      <point x="447" y="1693"/>
      <point x="356" y="1632"/>
    </contour>
  </outline>
</glyph>
<glyph name="dotaccent.cap" format="1">
  <advance width="650"/>
  <outline>
    <contour>
      <point x="309" y="1633" type="curve" smooth="yes"/>
      <point x="228" y="1633"/>
      <point x="152" y="1681"/>
      <point x="152" y="1766" type="curve" smooth="yes"/>
      <point x="152" y="1854"/>
      <point x="246" y="1920"/>
      <point x="334" y="1920" type="curve" smooth="yes"/>
      <point x="446" y="1920"/>
      <point x="490" y="1862"/>
      <point x="490" y="1788" type="curve" smooth="yes"/>
      <point x="490" y="1693"/>
      <point x="402" y="1633"/>
    </contour>
  </outline>
</glyph>
<glyph name="ring.cap" format="1">
  <advance width="708"/>
  <outline>
    <contour>
      <point x="353" y="1437" type="curve" smooth="yes"/>
      <point x="208" y="1437"/>
      <point x="76" y="1530"/>
      <point x="76" y="1678" type="curve" smooth="yes"/>
      <point x="76" y="1825"/>
      <point x="197" y="1920"/>
      <point x="353" y="1920" type="curve" smooth="yes"/>
      <point x="511" y="1920"/>
      <point x="632" y="1822"/>
      <point x="632" y="1678" type="curve" smooth="yes"/>
      <point x="632" y="1530"/>
      <point x="500" y="1437"/>
    </contour>
    <contour>
      <point x="353" y="1555" type="curve" smooth="yes"/>
      <point x="425" y="1555"/>
      <point x="482" y="1606"/>
      <point x="482" y="1677" type="curve" smooth="yes"/>
      <point x="482" y="1746"/>
      <point x="425" y="1801"/>
      <point x="353" y="1801" type="curve" smooth="yes"/>
      <point x="279" y="1801"/>
      <point x="224" y="1748"/>
      <point x="224" y="1677" type="curve" smooth="yes"/>
      <point x="224" y="1606"/>
      <point x="279" y="1555"/>
    </contour>
  </outline>
</glyph>
<glyph name="tilde.cap" format="1">
  <advance width="1063"/>
  <outline>
    <contour>
      <point x="189" y="1653" type="curve"/>
      <point x="117" y="1728" type="line"/>
      <point x="163" y="1836"/>
      <point x="314" y="1920"/>
      <point x="411" y="1920" type="curve" smooth="yes"/>
      <point x="551" y="1920"/>
      <point x="600" y="1809"/>
      <point x="690" y="1809" type="curve" smooth="yes"/>
      <point x="764" y="1809"/>
      <point x="821" y="1844"/>
      <point x="864" y="1884" type="curve"/>
      <point x="937" y="1797" type="line"/>
      <point x="890" y="1690"/>
      <point x="745" y="1615"/>
      <point x="647" y="1615" type="curve" smooth="yes"/>
      <point x="508" y="1615"/>
      <point x="455" y="1730"/>
      <point x="364" y="1730" type="curve" smooth="yes"/>
      <point x="300" y="1730"/>
      <point x="233" y="1692"/>
    </contour>
  </outline>
</glyph>
